<svg xmlns="http://www.w3.org/2000/svg" xmlns:xlink="http://www.w3.org/1999/xlink" xmlns:lucid="lucid" width="860" height="694"><g transform="translate(-220.00000000000006 -80)" lucid:page-tab-id="0_0"><path d="M0 0h1870.87v1322.84H0z" fill="#fff"/><path d="M240 152.4a6 6 0 0 1 6-6h808a6 6 0 0 1 6 6v421.22a6 6 0 0 1-6 6H246a6 6 0 0 1-6-6z" stroke="#3a414a" fill="#f2f3f5"/><use xlink:href="#a" transform="matrix(1,0,0,1,245.00000000000006,151.41509433962258) translate(258.4567901234568 17.77777777777778)"/><use xlink:href="#b" transform="matrix(1,0,0,1,245.00000000000006,151.41509433962258) translate(315.1234567901235 17.77777777777778)"/><use xlink:href="#c" transform="matrix(1,0,0,1,245.00000000000006,151.41509433962258) translate(492.3456790123456 17.77777777777778)"/><path d="M602.7 228.1c.65-.27 1.4-.27 2.04.2.56.36.93 1 .93 1.75v46.14c0 1.1-.92 2.03-2.13 2.03H585.1c-1.13 0-2.15-.92-2.15-2.04v-46.14c0-.75.37-1.4 1.02-1.77.56-.47 1.3-.47 1.95-.2 5.3 2.33 11.5 2.33 16.8 0zm-76.78 50.13c-1.2 0-2.13-.92-2.13-2.04v-40.67c0-1.1.9-2.04 2.12-2.04h18.45c1.2 0 2.14.92 2.14 2.03v40.66c0 1.1-.92 2.03-2.13 2.03zm68.44-51.7c-9.37 0-16.88-7.52-16.88-16.8 0-9.3 7.5-16.9 16.88-16.9 9.27 0 16.88 7.6 16.88 16.9 0 9.28-7.6 16.8-16.88 16.8zm-38.86 51.7c-1.2 0-2.13-.92-2.13-2.04V244.8c0-1.2.93-2.14 2.13-2.14h18.46c1.2 0 2.13.93 2.13 2.13v31.4c0 1.1-.94 2.03-2.14 2.03zm46-4.17v-41.03c-4.64 1.4-9.74 1.4-14.28 0v41.03zm-73.54 0h14.37v-36.4h-14.37zm66.4-77.05c-7.05 0-12.7 5.67-12.7 12.72 0 6.97 5.65 12.63 12.7 12.63 6.95 0 12.7-5.66 12.7-12.63 0-7.05-5.75-12.7-12.7-12.7zm-36.73 77.06h14.3v-27.2h-14.3zm-39.13 11.6v-4.18h92.46v4.18zm77.9-72.04h-11.3v-4.17h7.13v-9h4.17z" stroke="#000" stroke-opacity="0" fill="#b0084d"/><path d="M526 233.5l18.02-.1c1.1.38 2.4.66 2.32 2.05l.18 9.1 6.88.1c.18-1.3.92-1.96 2.04-2.05l17.26.1c1.4.27 3.25-.38 3.16 2.5l6.96.18.2-22.83c-5.02-5.3-7.16-11.6-4-19.87 2.13-4.18 5.1-8.08 14-9.84 5.5.2 10.6 1.58 14.96 7.15 4.36 7.88 4 12.9 1.58 16.8-1.02 1.94-2.04 3.8-4.18 5.65l.2 54.22 5.18 4.64v4.37H518.5l.08-4.36 5.2-4.73v-41.2c.56-1.22 1.2-2.06 2.23-1.87z" stroke="#000" stroke-opacity="0" fill-opacity="0"/><use xlink:href="#d" transform="matrix(1,0,0,1,488.4905660377357,294.6603773584905) translate(28.424999999999997 14.4)"/><use xlink:href="#e" transform="matrix(1,0,0,1,488.4905660377357,294.6603773584905) translate(53.5 36)"/><path d="M564.9 409.43c25.63 0 46.42 20.8 46.42 46.42s-20.8 46.4-46.4 46.4c-25.63 0-46.43-20.78-46.43-46.4 0-25.62 20.78-46.42 46.4-46.42zm0 88.66c23.3 0 42.24-18.95 42.24-42.25S588.2 413.6 564.9 413.6c-23.3 0-42.23 18.95-42.23 42.25s18.94 42.24 42.24 42.24zm27.67-31.48c1.2 0 2.13 1.02 2.13 2.13v12.9c0 1.2-.92 2.14-2.13 2.14h-14.95c-.83 0-1.58-.47-1.85-1.22l-20.98-44.93h-8.37c-.55 0-1.1-.18-1.48-.64-.37-.37-.65-.92-.65-1.48l.1-12.9c0-1.2.92-2.14 2.03-2.14h18.75c.75 0 1.5.46 1.86 1.3l20.8 44.84zm-2.04 13v-8.73h-4c-.83 0-1.57-.48-1.94-1.22l-20.8-44.93h-15.23v8.73h7.6c.85 0 1.6.46 1.87 1.2l20.98 44.93zm-35.93-33.9l8 16.53c.26.65.26 1.3 0 1.86l-8.74 18.48c-.37.75-1.12 1.2-1.86 1.2h-16.06c-.65 0-1.4-.36-1.76-.92-.37-.65-.37-1.4-.1-2.04l16.7-35.1c.4-.73 1.13-1.2 1.87-1.2.84 0 1.58.47 1.95 1.2zm-4 33.9l7.8-16.44-5.65-11.6-13.47 28.03z" stroke="#000" stroke-opacity="0" fill="#d45b07"/><use xlink:href="#f" transform="matrix(1,0,0,1,488.4905660377357,511.2641509433961) translate(11.474999999999994 14.4)"/><use xlink:href="#g" transform="matrix(1,0,0,1,488.4905660377357,511.2641509433961) translate(73.325 14.4)"/><use xlink:href="#h" transform="matrix(1,0,0,1,488.4905660377357,511.2641509433961) translate(7.074999999999989 36)"/><use xlink:href="#i" transform="matrix(1,0,0,1,488.4905660377357,511.2641509433961) translate(77.02499999999999 36)"/><path d="M1013.6 424.2v21.07c0 1.2-.94 2.13-2.15 2.13H922.9c-1.22 0-2.14-.93-2.14-2.13v-8.45h4.17v6.4h84.48v-16.9h-59.13v-4.26h61.18c1.2 0 2.13 1.02 2.13 2.13zm-92.85-2.14c0-6.96 5.67-12.63 12.63-12.63 7.05 0 12.72 5.67 12.72 12.63 0 7.05-5.67 12.72-12.72 12.72-6.96 0-12.63-5.67-12.63-12.72zm4.18 0c0 4.73 3.8 8.45 8.45 8.45 4.73 0 8.45-3.7 8.45-8.44 0-4.64-3.72-8.45-8.45-8.45-4.64 0-8.45 3.82-8.45 8.46zM976 441.1h-1.68v-9.76l-3.44 6.6h-1.67l-3.52-6.7v9.85h-1.76v-12.45h2.14l4 7.6 3.98-7.6H976zm4.72-3.35l-1.1 3.34h-1.96l4.64-12.45h1.95l4.64 12.44h-1.96l-1.1-3.35zm-19.12-7.62h-5.85v3.8h4.92v1.5h-4.92v4.17h5.85v1.5h-7.7v-12.45h7.7zm33.98-1.48h1.76v10.95h5.85v1.5h-7.62zm-63.22 27.2v-4.18h6.3v4.18zm12.62 0v-4.18h6.4v4.18zm12.72 0v-4.18h6.3v4.18zm12.63 0v-4.18h6.3v4.18zm12.62 0v-4.18h6.4v4.18zm12.72 0v-4.18h6.3v4.18zm-63.3 19.03v-4.27h6.3v4.28zm12.6 0v-4.27h6.42v4.28zm12.73 0v-4.27h6.3v4.28zm12.63 0v-4.27h6.3v4.28zm12.62 0v-4.27h6.4v4.28zm12.72 0v-4.27h6.3v4.28zm-63.3 8.35v-4.17h6.3v4.17zm12.6 0v-4.17h6.42v4.17zm12.73 0v-4.17h6.3v4.17zm12.63 0v-4.17h6.3v4.17zm12.62 0v-4.17h6.4v4.17zm12.72 0v-4.17h6.3v4.17zm-63.3 19.03v-4.17h6.3v4.16zm12.6 0v-4.17h6.42v4.16zm12.73 0v-4.17h6.3v4.16zm12.63 0v-4.17h6.3v4.16zm12.62 0v-4.17h6.4v4.16zm12.72 0v-4.17h6.3v4.16zm-70.74-32.67v1h1.12v4.28h-3.16c-1.22 0-2.14-1.02-2.14-2.14v-3.15zm0 27.37v1.12h1.12v4.16h-3.16c-1.22 0-2.14-.92-2.14-2.13v-3.16zm-4.17-15.78c0-1.2.92-2.14 2.13-2.14h3.15v4.17h-1.12v1.12h-4.17zm0-27.5c0-1.1.92-2.03 2.13-2.03h3.15v4.18h-1.12v1.02h-4.17zm88.65 16.9v-1h4.2v3.14c0 1.12-.94 2.14-2.15 2.14h-3.16v-4.27zm0 27.5v-1.13h4.2v3.16c0 1.2-.94 2.13-2.15 2.13h-3.16v-4.17zm2.05-19.04c1.2 0 2.13.93 2.13 2.13v3.15h-4.17v-1.12h-1.1v-4.17zm0-27.4c1.2 0 2.13.94 2.13 2.05v3.17h-4.17v-1.02h-1.1v-4.18zm-20.8-10.57v-12.45h1.77v12.44zm-69.9 24.22v-4.18h4.18v4.18zm88.66 0v-4.18h4.2v4.18zm-88.64 27.48v-4.28h4.17v4.28zm88.65 0v-4.28h4.2v4.28zm-28.2-56.44h4.16l-2.13-6.04z" stroke="#000" stroke-opacity="0" fill="#b0084d"/><path d="M922.83 424h88.65v76.22h-88.65v-76.2z" stroke="#000" stroke-opacity="0" fill-opacity="0"/><use xlink:href="#j" transform="matrix(1,0,0,1,890.7547169811318,511.2641509433961) translate(2.1499999999999915 14.4)"/><use xlink:href="#k" transform="matrix(1,0,0,1,890.7547169811318,511.2641509433961) translate(52 14.4)"/><path d="M518.5 610.57h92.82v92.83H518.5v-92.83z" stroke="#000" stroke-opacity="0" fill="url(#l)"/><path d="M557.66 669.9v14.7h21.77v2.92h-40.6v-27.8c-2.44-.7-4.37-2.96-4.37-5.58s1.93-4.88 4.36-5.6v-20.52h2.87v20.53c2.43.7 4.36 2.97 4.36 5.6 0 .23-.06.4-.06.64l7.05 4.7c.56-.36 1.12-.6 1.74-.78v-30.7h2.86v30.7c.44.12.8.3 1.2.48l9.03-12.86c-.94-1.07-1.5-2.38-1.5-3.8 0-2.62 1.87-4.88 4.3-5.6v-8.92h2.93v8.92c1.3.36 2.44 1.2 3.25 2.26l5.55-3.33c.37-2.26 2.12-4.1 4.24-4.7v-3.15h2.93v3.15c2.44.66 4.37 2.98 4.37 5.54 0 2.62-1.93 4.94-4.37 5.6v13.27h-2.93V642.3c-1.68-.48-3.12-1.73-3.87-3.33l-4.86 2.97c0 .18.06.42.06.6 0 2.56-1.93 4.88-4.37 5.6v4.57h-2.93v-4.57c-.12-.06-.25-.12-.44-.18l-9.23 13.2c.63.96 1 2.03 1 3.17 0 2.55-1.93 4.88-4.37 5.6zm37.93 10.96c1.55 1.43 1.68 3.8.24 5.4-.75.85-1.8 1.26-2.8 1.26-.94 0-1.88-.3-2.56-1l-6.8-6.08c-1.94 1.2-4.25 1.9-6.68 1.9-7.17 0-13.04-5.83-13.04-13.03 0-7.13 5.87-12.96 13.04-12.96 7.18 0 12.98 5.83 12.98 12.97 0 1.98-.44 3.76-1.2 5.43zm-28.7-11.55c0 5.6 4.5 10.13 10.1 10.13 5.55 0 10.1-4.52 10.1-10.12 0-5.52-4.55-10.04-10.1-10.04-5.6 0-10.1 4.52-10.1 10.05zm-25.2-9.57v24.88h13.1v-14.7c-2.44-.7-4.37-3.03-4.37-5.58 0-.96.25-1.85.68-2.62l-6.23-4.17c-.74 1.07-1.87 1.85-3.18 2.2zm35.3 1.67c4.37 0 7.92 3.57 7.92 7.9 0 4.42-3.55 8-7.92 8s-7.92-3.58-7.92-8c0-4.33 3.55-7.9 7.92-7.9zm0 12.97c2.75 0 5-2.26 5-5.06 0-2.72-2.25-4.98-5-4.98-2.8 0-5.05 2.26-5.05 5 0 2.8 2.25 5.05 5.05 5.05zm11.1-40.52c-1.5 0-2.86 1.37-2.86 2.86 0 1.55 1.37 2.92 2.87 2.92 1.56 0 2.94-1.37 2.94-2.9 0-1.5-1.38-2.87-2.93-2.87zm-15.9 5.77c-1.56 0-2.93 1.37-2.93 2.92 0 1.5 1.37 2.9 2.93 2.9 1.5 0 2.87-1.42 2.87-2.9 0-1.55-1.37-2.92-2.87-2.92zm-34.8 14.52c0 1.55 1.36 2.92 2.86 2.92 1.5 0 2.93-1.37 2.93-2.92 0-1.55-1.44-2.9-2.94-2.9s-2.87 1.35-2.87 2.9zm18.83 7.26c-1.5 0-2.93 1.37-2.93 2.92 0 1.48 1.43 2.9 2.93 2.9 1.5 0 2.87-1.42 2.87-2.9 0-1.55-1.37-2.92-2.87-2.92zm37.5 22.9c.3-.35.3-.94-.07-1.3l-6.43-5.77c-.37.53-.75 1-1.18 1.43l6.36 5.7c.38.37.95.3 1.32-.05z" stroke="#000" stroke-opacity="0" fill="#fff"/><use xlink:href="#m" transform="matrix(1,0,0,1,488.4905660377357,712.3962264150942) translate(35.375 14.4)"/><use xlink:href="#n" transform="matrix(1,0,0,1,488.4905660377357,712.3962264150942) translate(80.675 14.4)"/><use xlink:href="#o" transform="matrix(1,0,0,1,488.4905660377357,712.3962264150942) translate(26.074999999999996 36)"/><use xlink:href="#p" transform="matrix(1,0,0,1,488.4905660377357,712.3962264150942) translate(97.92500000000001 36)"/><path d="M317.36 409.43h92.83v92.83h-92.84v-92.83z" stroke="#000" stroke-opacity="0" fill="url(#q)"/><path d="M379.87 468.8c0 .33-.06.6-.06.84v8.7c0 5.23-9.45 9.44-21 9.44-10.03 0-20.17-2.74-21-7.98h-.1v-46.95c0-5.8 10.86-8.94 21.1-8.94 5.7.02 11.2.97 15.06 2.57l-1.1 2.68c-3.5-1.47-8.63-2.3-13.96-2.3-11.3 0-18.2 3.52-18.2 6 0 2.5 6.9 6 18.2 6H359.64l.1 2.88c-.3.07-.62.07-.94.07-7 0-14.32-1.47-18.2-4.28V443.9c0 .77.7 1.67 1.95 2.5 2.93 1.85 8.1 3.13 13.85 3.38l-.1 2.94c-6.02-.26-11.24-1.53-14.64-3.5-.47.43-1.05 1.52-1.05 2.1 0 2.55 6.9 6 18.2 6 1.05 0 2.1 0 3.14-.07l.2 2.88c-1.1.13-2.24.13-3.34.13-7 0-14.32-1.47-18.2-4.22v5.3c0 .83.7 1.73 1.95 2.56 3.3 2.1 9.5 3.45 16.25 3.45h.47v2.93h-.47c-6.95 0-14.32-1.47-18.2-3.7-.3.32-.2.83-.1 1.4.06.32.12.58.12.83 0 2.57 6.9 6.02 18.18 6.02 11.24 0 18.2-3.45 18.2-6 0-.84-.9-1.67-1.63-2.24-.57.38-1.2.7-2 1.02l-1.08-2.68c.77-.32 1.45-.7 1.97-1.02 1.57-1.1 2.62-2.62 2.62-3.2h2.9c0 1.4-.93 2.88-2.08 4.03 1.73 1.53 2.14 3.06 2.14 4.08zm9.66-23.17L363.4 472c-.26.33-.68.45-1.04.45-.26 0-.53-.06-.74-.2-.57-.37-.83-1.07-.62-1.7l6.63-20.07h-6.74c-.48 0-.95-.25-1.2-.7-.27-.44-.32-.96-.1-1.4l7.25-16.16c.26-.5.73-.83 1.3-.83h16c.47 0 .94.24 1.2.63.26.38.32.9.16 1.34l-3.6 9.77h6.6c.56 0 1.14.32 1.35.9.2.5.1 1.14-.32 1.6zm-4.54.45h-5.2c-.5 0-.93-.26-1.2-.64-.25-.38-.36-.9-.15-1.34l3.6-9.77H369.1l-5.9 13.22h6.42c.47 0 .9.2 1.2.57.26.38.32.9.16 1.34l-5.28 16.1zm-8.1 27.52c-3.93 2.75-11.2 4.15-18.1 4.15-7 0-14.32-1.46-18.2-4.2v5.48c0 2.43 6.9 5.82 18.2 5.82 10.87 0 18.1-3.9 18.1-6.52zm-34.66-29.18l1.35-2.62c.94.5 2.14.96 3.44 1.4l-.78 2.8c-1.52-.43-2.88-1-4.02-1.58zm0 35.2l1.35-2.57c.94.5 2.14.96 3.44 1.34l-.78 2.8c-1.52-.44-2.88-.95-4.02-1.6zm4.02-16.04c-1.52-.45-2.88-.96-4.02-1.54l1.35-2.6c.94.5 2.14.94 3.44 1.33z" stroke="#000" stroke-opacity="0" fill="#fff"/><use xlink:href="#r" transform="matrix(1,0,0,1,287.35849056603774,511.2641509433961) translate(43.525 14.4)"/><use xlink:href="#s" transform="matrix(1,0,0,1,287.35849056603774,511.2641509433961) translate(30.574999999999996 36)"/><path d="M517 455.85h-86.2" stroke="#3a414a" stroke-width="3" fill="none"/><path d="M518.5 455.85l.04 1.5h-1.6v-3h1.63z" stroke="#3a414a" stroke-width=".05" fill="#3a414a"/><path d="M415.04 455.85l14.27-4.64v9.28z" stroke="#3a414a" stroke-width="3" fill="#3a414a"/><path d="M564.9 503.76v86.2" stroke="#3a414a" stroke-width="3" fill="none"/><path d="M564.9 502.26l1.5-.04v1.58h-3v-1.62z" stroke="#3a414a" stroke-width=".05" fill="#3a414a"/><path d="M564.9 605.7l-4.63-14.25h9.27z" stroke="#3a414a" stroke-width="3" fill="#3a414a"/><path d="M564.9 287.17V388.8" stroke="#3a414a" stroke-width="3" fill="none"/><path d="M566.4 287.2h-3v-1.53h3z" stroke="#3a414a" stroke-width=".05" fill="#3a414a"/><path d="M564.9 404.58l-4.63-14.27h9.27z" stroke="#3a414a" stroke-width="3" fill="#3a414a"/><path d="M270.94 100h92.83v92.83h-92.83V100z" stroke="#000" stroke-opacity="0" fill="url(#t)"/><path d="M314.48 172.44v-20.52h2.88v22c0 .78-.64 1.46-1.47 1.46h-29c-.84 0-1.47-.68-1.47-1.47v-41.03c0-.8.63-1.47 1.46-1.47h29c.82 0 1.46.67 1.46 1.47v8.8h-2.88v-7.33H288.3v38.1zm34.8-27.82c0 8.1-6.63 10.24-10.14 10.24H321.7v-2.94h17.44c.76 0 7.28-.23 7.28-7.3 0-5.93-4.1-8.48-6.07-8.8-.77-.2-1.28-.86-1.2-1.6v-.06c-.08-2.3-1.16-4-3.14-4.7-1.84-.6-3.95-.04-4.97 1.37-.32.4-.9.62-1.4.56-.52-.12-.97-.46-1.16-.97-.7-1.92-1.66-3.16-3.06-4.58-3.3-3.33-6.64-5.2-11.94-3.33-2.36.85-5.23 3.8-6.38 6.5l-2.7-1.13c1.48-3.52 5-7.02 8.13-8.15 7.16-2.5 11.56.62 14.95 4 1.15 1.2 2.1 2.33 2.87 3.74 1.86-1.2 4.35-1.53 6.65-.8 2.87.96 4.66 3.34 5.04 6.5 3.2 1.14 7.3 4.75 7.3 11.42zm-56.57 2.9v-2.9H329v2.9zm0 7.34v-2.94h13.04v2.94zm0-13.18v-2.94h10.16v2.94zm0 20.53v-2.93h7.22v2.94zm39.16-14.7v-2.88h5.8v2.9zm-27.53 14.7v-2.93h5.75v2.94z" stroke="#000" stroke-opacity="0" fill="#fff"/><path d="M719.62 409.43h92.83v92.83h-92.83v-92.83z" stroke="#000" stroke-opacity="0" fill="url(#u)"/><path d="M768.1 483.47c5.48 0 10.9-1.84 15.96-5.53l1.68 2.38c-5.55 4.05-11.54 6.07-17.65 6.07-14.42 0-26.9-11.26-29.4-26.3-1.8-.6-3.1-2.2-3.1-4.18 0-1.96 1.3-3.63 3.1-4.16 2.44-14.22 14.85-24.87 29.4-24.87 6.6 0 11.6 1.4 16.2 4.63l-1.67 2.38c-4.12-2.9-8.5-4.1-14.54-4.1-13 0-24.15 9.4-26.46 22.08 1.12.47 2 1.43 2.37 2.56h7.56v2.9H744c-.36 1.2-1.24 2.1-2.36 2.57 2.37 13.52 13.54 23.57 26.45 23.57zm-9.3-10.17c-.8 0-1.44-.6-1.44-1.43v-8.45l-5.43-13.5c-.25-.36-.37-.78-.37-1.25 0-3.22 6.43-4.35 10.8-4.35 4.36 0 10.97 1.13 10.97 4.35 0 .6-.25 1.07-.62 1.54l-6.67 13.34v5.4c0 .55-.25.97-.62 1.26-.24.18-.62.42-1 .78-1.17 1-2.55 2.14-3.98 2.32h-.2zm24.64-15.95v14.52h3.18c.62-1.67 2.18-2.92 4.12-2.92 2.37 0 4.3 1.97 4.3 4.35 0 2.44-1.93 4.4-4.3 4.4-1.94 0-3.5-1.25-4.12-2.9H782c-.8 0-1.43-.67-1.43-1.5v-15.95h-7.24v-2.9h7.24v-15.96c0-.78.62-1.44 1.43-1.44h4.62c.62-1.72 2.18-2.9 4.12-2.9 2.37 0 4.3 1.95 4.3 4.33 0 2.37-1.93 4.33-4.3 4.33-1.94 0-3.5-1.2-4.12-2.85h-3.18v14.46h6.1c.57-1.67 2.2-2.86 4.07-2.86 2.44 0 4.37 1.9 4.37 4.34 0 2.38-1.93 4.35-4.37 4.35-1.87 0-3.5-1.2-4.05-2.92zM756 452.23l4.17 10.42c.06.18.06.36.06.53v7.2c.62-.23 1.75-1.2 2.37-1.66.2-.18.38-.3.56-.48v-5.06c0-.23.07-.47.13-.65l5.1-10.24c-2 .47-4.18.7-6.05.7-2 0-4.37-.23-6.36-.76zm6.35-5.05c-3.93 0-6.6.9-7.6 1.5 1 .58 3.67 1.4 7.6 1.4 3.74 0 6.6-.82 7.74-1.4-1.14-.67-4-1.5-7.75-1.5zm-22.4 7.26c-.8 0-1.43.65-1.43 1.48 0 .78.63 1.43 1.44 1.43.8 0 1.43-.65 1.43-1.43 0-.83-.63-1.48-1.44-1.48zm50.78-17.38c-.8 0-1.5.66-1.5 1.43 0 .82.7 1.48 1.5 1.48.82 0 1.44-.66 1.44-1.5 0-.76-.62-1.42-1.43-1.42zm2.88 17.38c-.8 0-1.43.65-1.43 1.48 0 .78.62 1.43 1.44 1.43s1.44-.65 1.44-1.43c0-.83-.62-1.48-1.43-1.48zm-2.87 17.43c-.8 0-1.5.66-1.5 1.43 0 .83.7 1.5 1.5 1.5.82 0 1.44-.67 1.44-1.5 0-.77-.62-1.43-1.43-1.43z" stroke="#000" stroke-opacity="0" fill="#fff"/><g><use xlink:href="#v" transform="matrix(1,0,0,1,689.6226415094337,511.2641509433961) translate(13.599999999999994 14.4)"/><use xlink:href="#w" transform="matrix(1,0,0,1,689.6226415094337,511.2641509433961) translate(84.55 14.4)"/><use xlink:href="#x" transform="matrix(1,0,0,1,689.6226415094337,511.2641509433961) translate(32.099999999999994 36)"/><use xlink:href="#y" transform="matrix(1,0,0,1,689.6226415094337,511.2641509433961) translate(46.55 57.6)"/></g><path d="M612.82 455.85H699" stroke="#3a414a" stroke-width="3" fill="none"/><path d="M612.86 457.35h-1.62l.08-1.5-.05-1.5h1.6z" stroke="#3a414a" stroke-width=".05" fill="#3a414a"/><path d="M714.77 455.85l-14.27 4.63v-9.27z" stroke="#3a414a" stroke-width="3" fill="#3a414a"/><path d="M813.95 455.85h86.18" stroke="#3a414a" stroke-width="3" fill="none"/><path d="M814 457.35h-1.55v-3H814z" stroke="#3a414a" stroke-width=".05" fill="#3a414a"/><path d="M915.9 455.85l-14.26 4.63v-9.27z" stroke="#3a414a" stroke-width="3" fill="#3a414a"/><defs><path fill="#3a414a" d="M199 0l-22-63H83L61 0H9l90-248h61L250 0h-51zm-33-102l-36-108c-10 38-24 72-36 108h72" id="z"/><path fill="#3a414a" d="M275 0h-61l-44-196L126 0H64L0-248h53L97-49l45-199h58l43 199 44-199h52" id="A"/><path fill="#3a414a" d="M169-182c-1-43-94-46-97-3 18 66 151 10 154 114 3 95-165 93-204 36-6-8-10-19-12-30l50-8c3 46 112 56 116 5-17-69-150-10-154-114-4-87 153-88 188-35 5 8 8 18 10 28" id="B"/><g id="a"><use transform="matrix(0.06172839506172839,0,0,0.06172839506172839,0,0)" xlink:href="#z"/><use transform="matrix(0.06172839506172839,0,0,0.06172839506172839,14.753086419753085,0)" xlink:href="#A"/><use transform="matrix(0.06172839506172839,0,0,0.06172839506172839,35.67901234567901,0)" xlink:href="#B"/></g><path fill="#3a414a" d="M67-125c0 53 21 87 73 88 37 1 54-22 65-47l45 17C233-25 199 4 140 4 58 4 20-42 15-125 8-235 124-281 211-232c18 10 29 29 36 50l-46 12c-8-25-30-41-62-41-52 0-71 34-72 86" id="C"/><path fill="#3a414a" d="M25 0v-261h50V0H25" id="D"/><path fill="#3a414a" d="M110-194c64 0 96 36 96 99 0 64-35 99-97 99-61 0-95-36-95-99 0-62 34-99 96-99zm-1 164c35 0 45-28 45-65 0-40-10-65-43-65-34 0-45 26-45 65 0 36 10 65 43 65" id="E"/><path fill="#3a414a" d="M85 4C-2 5 27-109 22-190h50c7 57-23 150 33 157 60-5 35-97 40-157h50l1 190h-47c-2-12 1-28-3-38-12 25-28 42-61 42" id="F"/><path fill="#3a414a" d="M88-194c31-1 46 15 58 34l-1-101h50l1 261h-48c-2-10 0-23-3-31C134-8 116 4 84 4 32 4 16-41 15-95c0-56 19-97 73-99zm17 164c33 0 40-30 41-66 1-37-9-64-41-64s-38 30-39 65c0 43 13 65 39 65" id="G"/><path fill="#3a414a" d="M76-208v77h127v40H76V0H24v-248h183v40H76" id="H"/><path fill="#3a414a" d="M135-150c-39-12-60 13-60 57V0H25l-1-190h47c2 13-1 29 3 40 6-28 27-53 61-41v41" id="I"/><path fill="#3a414a" d="M220-157c-53 9-28 100-34 157h-49v-107c1-27-5-49-29-50C55-147 81-57 75 0H25l-1-190h47c2 12-1 28 3 38 10-53 101-56 108 0 13-22 24-43 59-42 82 1 51 116 57 194h-49v-107c-1-25-5-48-29-50" id="J"/><path fill="#3a414a" d="M133-34C117-15 103 5 69 4 32 3 11-16 11-54c-1-60 55-63 116-61 1-26-3-47-28-47-18 1-26 9-28 27l-52-2c7-38 36-58 82-57s74 22 75 68l1 82c-1 14 12 18 25 15v27c-30 8-71 5-69-32zm-48 3c29 0 43-24 42-57-32 0-66-3-65 30 0 17 8 27 23 27" id="K"/><path fill="#3a414a" d="M115-3C79 11 28 4 28-45v-112H4v-33h27l15-45h31v45h36v33H77v99c-1 23 16 31 38 25v30" id="L"/><path fill="#3a414a" d="M25-224v-37h50v37H25zM25 0v-190h50V0H25" id="M"/><path fill="#3a414a" d="M135-194c87-1 58 113 63 194h-50c-7-57 23-157-34-157-59 0-34 97-39 157H25l-1-190h47c2 12-1 28 3 38 12-26 28-41 61-42" id="N"/><g id="b"><use transform="matrix(0.06172839506172839,0,0,0.06172839506172839,0,0)" xlink:href="#C"/><use transform="matrix(0.06172839506172839,0,0,0.06172839506172839,15.987654320987653,0)" xlink:href="#D"/><use transform="matrix(0.06172839506172839,0,0,0.06172839506172839,22.160493827160494,0)" xlink:href="#E"/><use transform="matrix(0.06172839506172839,0,0,0.06172839506172839,35.67901234567901,0)" xlink:href="#F"/><use transform="matrix(0.06172839506172839,0,0,0.06172839506172839,49.19753086419753,0)" xlink:href="#G"/><use transform="matrix(0.06172839506172839,0,0,0.06172839506172839,62.71604938271605,0)" xlink:href="#H"/><use transform="matrix(0.06172839506172839,0,0,0.06172839506172839,76.23456790123457,0)" xlink:href="#E"/><use transform="matrix(0.06172839506172839,0,0,0.06172839506172839,89.75308641975309,0)" xlink:href="#I"/><use transform="matrix(0.06172839506172839,0,0,0.06172839506172839,98.39506172839506,0)" xlink:href="#J"/><use transform="matrix(0.06172839506172839,0,0,0.06172839506172839,118.14814814814815,0)" xlink:href="#K"/><use transform="matrix(0.06172839506172839,0,0,0.06172839506172839,130.49382716049382,0)" xlink:href="#L"/><use transform="matrix(0.06172839506172839,0,0,0.06172839506172839,137.8395061728395,0)" xlink:href="#M"/><use transform="matrix(0.06172839506172839,0,0,0.06172839506172839,144.01234567901233,0)" xlink:href="#E"/><use transform="matrix(0.06172839506172839,0,0,0.06172839506172839,157.53086419753083,0)" xlink:href="#N"/></g><path fill="#3a414a" d="M190-63c-7 42-38 67-86 67-59 0-84-38-90-98-12-110 154-137 174-36l-49 2c-2-19-15-32-35-32-30 0-35 28-38 64-6 74 65 87 74 30" id="O"/><path fill="#3a414a" d="M147 0L96-86 75-71V0H25v-261h50v150l67-79h53l-66 74L201 0h-54" id="P"/><g id="c"><use transform="matrix(0.06172839506172839,0,0,0.06172839506172839,0,0)" xlink:href="#B"/><use transform="matrix(0.06172839506172839,0,0,0.06172839506172839,14.814814814814813,0)" xlink:href="#L"/><use transform="matrix(0.06172839506172839,0,0,0.06172839506172839,22.160493827160494,0)" xlink:href="#K"/><use transform="matrix(0.06172839506172839,0,0,0.06172839506172839,34.50617283950617,0)" xlink:href="#O"/><use transform="matrix(0.06172839506172839,0,0,0.06172839506172839,46.85185185185185,0)" xlink:href="#P"/></g><path d="M127-220V0H93v-220H8v-28h204v28h-85" id="Q"/><path d="M24-231v-30h32v30H24zM24 0v-190h32V0H24" id="R"/><path d="M210-169c-67 3-38 105-44 169h-31v-121c0-29-5-50-35-48C34-165 62-65 56 0H25l-1-190h30c1 10-1 24 2 32 10-44 99-50 107 0 11-21 27-35 58-36 85-2 47 119 55 194h-31v-121c0-29-5-49-35-48" id="S"/><path d="M100-194c63 0 86 42 84 106H49c0 40 14 67 53 68 26 1 43-12 49-29l28 8c-11 28-37 45-77 45C44 4 14-33 15-96c1-61 26-98 85-98zm52 81c6-60-76-77-97-28-3 7-6 17-6 28h103" id="T"/><path d="M16-82v-28h88v28H16" id="U"/><path d="M160-131c35 5 61 23 61 61C221 17 115-2 30 0v-248c76 3 177-17 177 60 0 33-19 50-47 57zm-97-11c50-1 110 9 110-42 0-47-63-36-110-37v79zm0 115c55-2 124 14 124-45 0-56-70-42-124-44v89" id="V"/><path d="M141-36C126-15 110 5 73 4 37 3 15-17 15-53c-1-64 63-63 125-63 3-35-9-54-41-54-24 1-41 7-42 31l-33-3c5-37 33-52 76-52 45 0 72 20 72 64v82c-1 20 7 32 28 27v20c-31 9-61-2-59-35zM48-53c0 20 12 33 32 33 41-3 63-29 60-74-43 2-92-5-92 41" id="W"/><path d="M135-143c-3-34-86-38-87 0 15 53 115 12 119 90S17 21 10-45l28-5c4 36 97 45 98 0-10-56-113-15-118-90-4-57 82-63 122-42 12 7 21 19 24 35" id="X"/><path d="M85-194c31 0 48 13 60 33l-1-100h32l1 261h-30c-2-10 0-23-3-31C134-8 116 4 85 4 32 4 16-35 15-94c0-66 23-100 70-100zm9 24c-40 0-46 34-46 75 0 40 6 74 45 74 42 0 51-32 51-76 0-42-9-74-50-73" id="Y"/><g id="d"><use transform="matrix(0.05,0,0,0.05,0,0)" xlink:href="#Q"/><use transform="matrix(0.05,0,0,0.05,10.3,0)" xlink:href="#R"/><use transform="matrix(0.05,0,0,0.05,14.25,0)" xlink:href="#S"/><use transform="matrix(0.05,0,0,0.05,29.200000000000003,0)" xlink:href="#T"/><use transform="matrix(0.05,0,0,0.05,39.2,0)" xlink:href="#U"/><use transform="matrix(0.05,0,0,0.05,45.150000000000006,0)" xlink:href="#V"/><use transform="matrix(0.05,0,0,0.05,57.150000000000006,0)" xlink:href="#W"/><use transform="matrix(0.05,0,0,0.05,67.15,0)" xlink:href="#X"/><use transform="matrix(0.05,0,0,0.05,76.15,0)" xlink:href="#T"/><use transform="matrix(0.05,0,0,0.05,86.15,0)" xlink:href="#Y"/></g><path d="M30 0v-248h187v28H63v79h144v27H63v87h162V0H30" id="Z"/><path d="M108 0H70L1-190h34L89-25l56-165h34" id="aa"/><path d="M117-194c89-4 53 116 60 194h-32v-121c0-31-8-49-39-48C34-167 62-67 57 0H25l-1-190h30c1 10-1 24 2 32 11-22 29-35 61-36" id="ab"/><path d="M59-47c-2 24 18 29 38 22v24C64 9 27 4 27-40v-127H5v-23h24l9-43h21v43h35v23H59v120" id="ac"/><g id="e"><use transform="matrix(0.05,0,0,0.05,0,0)" xlink:href="#Z"/><use transform="matrix(0.05,0,0,0.05,12,0)" xlink:href="#aa"/><use transform="matrix(0.05,0,0,0.05,21,0)" xlink:href="#T"/><use transform="matrix(0.05,0,0,0.05,31,0)" xlink:href="#ab"/><use transform="matrix(0.05,0,0,0.05,41,0)" xlink:href="#ac"/></g><path d="M212-179c-10-28-35-45-73-45-59 0-87 40-87 99 0 60 29 101 89 101 43 0 62-24 78-52l27 14C228-24 195 4 139 4 59 4 22-46 18-125c-6-104 99-153 187-111 19 9 31 26 39 46" id="ad"/><path d="M114-163C36-179 61-72 57 0H25l-1-190h30c1 12-1 29 2 39 6-27 23-49 58-41v29" id="ae"/><g id="f"><use transform="matrix(0.05,0,0,0.05,0,0)" xlink:href="#ad"/><use transform="matrix(0.05,0,0,0.05,12.950000000000001,0)" xlink:href="#ae"/><use transform="matrix(0.05,0,0,0.05,18.900000000000002,0)" xlink:href="#T"/><use transform="matrix(0.05,0,0,0.05,28.900000000000002,0)" xlink:href="#Y"/><use transform="matrix(0.05,0,0,0.05,38.900000000000006,0)" xlink:href="#R"/><use transform="matrix(0.05,0,0,0.05,42.85000000000001,0)" xlink:href="#ac"/><use transform="matrix(0.05,0,0,0.05,47.85000000000001,0)" xlink:href="#X"/></g><path d="M96-169c-40 0-48 33-48 73s9 75 48 75c24 0 41-14 43-38l32 2c-6 37-31 61-74 61-59 0-76-41-82-99-10-93 101-131 147-64 4 7 5 14 7 22l-32 3c-4-21-16-35-41-35" id="af"/><path d="M143 0L79-87 56-68V0H24v-261h32v163l83-92h37l-77 82L181 0h-38" id="ag"/><path d="M177-190C167-65 218 103 67 71c-23-6-38-20-44-43l32-5c15 47 100 32 89-28v-30C133-14 115 1 83 1 29 1 15-40 15-95c0-56 16-97 71-98 29-1 48 16 59 35 1-10 0-23 2-32h30zM94-22c36 0 50-32 50-73 0-42-14-75-50-75-39 0-46 34-46 75s6 73 46 73" id="ah"/><g id="g"><use transform="matrix(0.05,0,0,0.05,0,0)" xlink:href="#Q"/><use transform="matrix(0.05,0,0,0.05,10.3,0)" xlink:href="#ae"/><use transform="matrix(0.05,0,0,0.05,16.25,0)" xlink:href="#W"/><use transform="matrix(0.05,0,0,0.05,26.25,0)" xlink:href="#af"/><use transform="matrix(0.05,0,0,0.05,35.25,0)" xlink:href="#ag"/><use transform="matrix(0.05,0,0,0.05,44.25,0)" xlink:href="#R"/><use transform="matrix(0.05,0,0,0.05,48.2,0)" xlink:href="#ab"/><use transform="matrix(0.05,0,0,0.05,58.2,0)" xlink:href="#ah"/></g><path d="M30 0v-248h33v221h125V0H30" id="ai"/><path d="M115-194c53 0 69 39 70 98 0 66-23 100-70 100C84 3 66-7 56-30L54 0H23l1-261h32v101c10-23 28-34 59-34zm-8 174c40 0 45-34 45-75 0-40-5-75-45-74-42 0-51 32-51 76 0 43 10 73 51 73" id="aj"/><g id="h"><use transform="matrix(0.05,0,0,0.05,0,0)" xlink:href="#ai"/><use transform="matrix(0.05,0,0,0.05,10,0)" xlink:href="#W"/><use transform="matrix(0.05,0,0,0.05,20,0)" xlink:href="#S"/><use transform="matrix(0.05,0,0,0.05,34.95,0)" xlink:href="#aj"/><use transform="matrix(0.05,0,0,0.05,44.95,0)" xlink:href="#Y"/><use transform="matrix(0.05,0,0,0.05,54.95,0)" xlink:href="#W"/></g><path d="M63-220v92h138v28H63V0H30v-248h175v28H63" id="ak"/><path d="M84 4C-5 8 30-112 23-190h32v120c0 31 7 50 39 49 72-2 45-101 50-169h31l1 190h-30c-1-10 1-25-2-33-11 22-28 36-60 37" id="al"/><path d="M100-194c62-1 85 37 85 99 1 63-27 99-86 99S16-35 15-95c0-66 28-99 85-99zM99-20c44 1 53-31 53-75 0-43-8-75-51-75s-53 32-53 75 10 74 51 75" id="am"/><g id="i"><use transform="matrix(0.05,0,0,0.05,0,0)" xlink:href="#ak"/><use transform="matrix(0.05,0,0,0.05,10.950000000000001,0)" xlink:href="#al"/><use transform="matrix(0.05,0,0,0.05,20.950000000000003,0)" xlink:href="#ab"/><use transform="matrix(0.05,0,0,0.05,30.950000000000003,0)" xlink:href="#af"/><use transform="matrix(0.05,0,0,0.05,39.95,0)" xlink:href="#ac"/><use transform="matrix(0.05,0,0,0.05,44.95,0)" xlink:href="#R"/><use transform="matrix(0.05,0,0,0.05,48.900000000000006,0)" xlink:href="#am"/><use transform="matrix(0.05,0,0,0.05,58.900000000000006,0)" xlink:href="#ab"/></g><path d="M24 0v-261h32V0H24" id="an"/><g id="j"><use transform="matrix(0.05,0,0,0.05,0,0)" xlink:href="#Z"/><use transform="matrix(0.05,0,0,0.05,12,0)" xlink:href="#S"/><use transform="matrix(0.05,0,0,0.05,26.950000000000003,0)" xlink:href="#W"/><use transform="matrix(0.05,0,0,0.05,36.95,0)" xlink:href="#R"/><use transform="matrix(0.05,0,0,0.05,40.900000000000006,0)" xlink:href="#an"/></g><path d="M185-189c-5-48-123-54-124 2 14 75 158 14 163 119 3 78-121 87-175 55-17-10-28-26-33-46l33-7c5 56 141 63 141-1 0-78-155-14-162-118-5-82 145-84 179-34 5 7 8 16 11 25" id="ao"/><path d="M115-194c55 1 70 41 70 98S169 2 115 4C84 4 66-9 55-30l1 105H24l-1-265h31l2 30c10-21 28-34 59-34zm-8 174c40 0 45-34 45-75s-6-73-45-74c-42 0-51 32-51 76 0 43 10 73 51 73" id="ap"/><g id="k"><use transform="matrix(0.05,0,0,0.05,0,0)" xlink:href="#ao"/><use transform="matrix(0.05,0,0,0.05,12,0)" xlink:href="#al"/><use transform="matrix(0.05,0,0,0.05,22,0)" xlink:href="#aj"/><use transform="matrix(0.05,0,0,0.05,32,0)" xlink:href="#X"/><use transform="matrix(0.05,0,0,0.05,41,0)" xlink:href="#af"/><use transform="matrix(0.05,0,0,0.05,50,0)" xlink:href="#ae"/><use transform="matrix(0.05,0,0,0.05,55.95,0)" xlink:href="#R"/><use transform="matrix(0.05,0,0,0.05,59.900000000000006,0)" xlink:href="#ap"/><use transform="matrix(0.05,0,0,0.05,69.9,0)" xlink:href="#ac"/><use transform="matrix(0.05,0,0,0.05,74.9,0)" xlink:href="#R"/><use transform="matrix(0.05,0,0,0.05,78.85000000000001,0)" xlink:href="#am"/><use transform="matrix(0.05,0,0,0.05,88.85000000000001,0)" xlink:href="#ab"/></g><linearGradient gradientUnits="userSpaceOnUse" id="l" x1="518.49" y1="703.4" x2="611.32" y2="610.57"><stop offset="0%" stop-color="#1b660f"/><stop offset="100%" stop-color="#6cae3e"/></linearGradient><path d="M205 0l-28-72H64L36 0H1l101-248h38L239 0h-34zm-38-99l-47-123c-12 45-31 82-46 123h93" id="aq"/><path d="M266 0h-40l-56-210L115 0H75L2-248h35L96-30l15-64 43-154h32l59 218 59-218h35" id="ar"/><g id="m"><use transform="matrix(0.05,0,0,0.05,0,0)" xlink:href="#aq"/><use transform="matrix(0.05,0,0,0.05,11.35,0)" xlink:href="#ar"/><use transform="matrix(0.05,0,0,0.05,28.299999999999997,0)" xlink:href="#ao"/></g><g id="n"><use transform="matrix(0.05,0,0,0.05,0,0)" xlink:href="#ad"/><use transform="matrix(0.05,0,0,0.05,12.950000000000001,0)" xlink:href="#am"/><use transform="matrix(0.05,0,0,0.05,22.950000000000003,0)" xlink:href="#X"/><use transform="matrix(0.05,0,0,0.05,31.950000000000003,0)" xlink:href="#ac"/></g><path d="M141 0L90-78 38 0H4l68-98-65-92h35l48 74 47-74h35l-64 92 68 98h-35" id="as"/><g id="o"><use transform="matrix(0.05,0,0,0.05,0,0)" xlink:href="#Z"/><use transform="matrix(0.05,0,0,0.05,12,0)" xlink:href="#as"/><use transform="matrix(0.05,0,0,0.05,21,0)" xlink:href="#ap"/><use transform="matrix(0.05,0,0,0.05,31,0)" xlink:href="#an"/><use transform="matrix(0.05,0,0,0.05,34.95,0)" xlink:href="#am"/><use transform="matrix(0.05,0,0,0.05,44.95,0)" xlink:href="#ae"/><use transform="matrix(0.05,0,0,0.05,50.900000000000006,0)" xlink:href="#T"/><use transform="matrix(0.05,0,0,0.05,60.900000000000006,0)" xlink:href="#ae"/></g><path d="M30-248c87 1 191-15 191 75 0 78-77 80-158 76V0H30v-248zm33 125c57 0 124 11 124-50 0-59-68-47-124-48v98" id="at"/><path d="M33 0v-248h34V0H33" id="au"/><g id="p"><use transform="matrix(0.05,0,0,0.05,0,0)" xlink:href="#aq"/><use transform="matrix(0.05,0,0,0.05,12,0)" xlink:href="#at"/><use transform="matrix(0.05,0,0,0.05,24,0)" xlink:href="#au"/></g><linearGradient gradientUnits="userSpaceOnUse" id="q" x1="317.36" y1="502.26" x2="410.19" y2="409.43"><stop offset="0%" stop-color="#2e27ad"/><stop offset="100%" stop-color="#527fff"/></linearGradient><path d="M9 0v-24l116-142H16v-24h144v24L44-24h123V0H9" id="av"/><g id="r"><use transform="matrix(0.05,0,0,0.05,0,0)" xlink:href="#aq"/><use transform="matrix(0.05,0,0,0.05,12,0)" xlink:href="#S"/><use transform="matrix(0.05,0,0,0.05,26.950000000000003,0)" xlink:href="#W"/><use transform="matrix(0.05,0,0,0.05,36.95,0)" xlink:href="#av"/><use transform="matrix(0.05,0,0,0.05,45.95,0)" xlink:href="#am"/><use transform="matrix(0.05,0,0,0.05,55.95,0)" xlink:href="#ab"/></g><path d="M30-248c118-7 216 8 213 122C240-48 200 0 122 0H30v-248zM63-27c89 8 146-16 146-99s-60-101-146-95v194" id="aw"/><path d="M179-190L93 31C79 59 56 82 12 73V49c39 6 53-20 64-50L1-190h34L92-34l54-156h33" id="ax"/><g id="s"><use transform="matrix(0.05,0,0,0.05,0,0)" xlink:href="#aw"/><use transform="matrix(0.05,0,0,0.05,12.950000000000001,0)" xlink:href="#ax"/><use transform="matrix(0.05,0,0,0.05,21.950000000000003,0)" xlink:href="#ab"/><use transform="matrix(0.05,0,0,0.05,31.950000000000003,0)" xlink:href="#W"/><use transform="matrix(0.05,0,0,0.05,41.95,0)" xlink:href="#S"/><use transform="matrix(0.05,0,0,0.05,56.900000000000006,0)" xlink:href="#am"/><use transform="matrix(0.05,0,0,0.05,66.9,0)" xlink:href="#aw"/><use transform="matrix(0.05,0,0,0.05,79.85000000000001,0)" xlink:href="#V"/></g><linearGradient gradientUnits="userSpaceOnUse" id="t" x1="270.94" y1="192.83" x2="363.77" y2="100"><stop offset="0%" stop-color="#b0084d"/><stop offset="100%" stop-color="#ff4f8b"/></linearGradient><linearGradient gradientUnits="userSpaceOnUse" id="u" x1="719.62" y1="502.26" x2="812.45" y2="409.43"><stop offset="0%" stop-color="#b0084d"/><stop offset="100%" stop-color="#ff4f8b"/></linearGradient><g id="v"><use transform="matrix(0.05,0,0,0.05,0,0)" xlink:href="#aq"/><use transform="matrix(0.05,0,0,0.05,12,0)" xlink:href="#S"/><use transform="matrix(0.05,0,0,0.05,26.950000000000003,0)" xlink:href="#W"/><use transform="matrix(0.05,0,0,0.05,36.95,0)" xlink:href="#av"/><use transform="matrix(0.05,0,0,0.05,45.95,0)" xlink:href="#am"/><use transform="matrix(0.05,0,0,0.05,55.95,0)" xlink:href="#ab"/></g><g id="w"><use transform="matrix(0.05,0,0,0.05,0,0)" xlink:href="#ao"/><use transform="matrix(0.05,0,0,0.05,12,0)" xlink:href="#R"/><use transform="matrix(0.05,0,0,0.05,15.949999999999998,0)" xlink:href="#S"/><use transform="matrix(0.05,0,0,0.05,30.899999999999995,0)" xlink:href="#ap"/><use transform="matrix(0.05,0,0,0.05,40.9,0)" xlink:href="#an"/><use transform="matrix(0.05,0,0,0.05,44.85,0)" xlink:href="#T"/></g><path d="M190 0L58-211 59 0H30v-248h39L202-35l-2-213h31V0h-41" id="ay"/><path d="M101-234c-31-9-42 10-38 44h38v23H63V0H32v-167H5v-23h27c-7-52 17-82 69-68v24" id="az"/><g id="x"><use transform="matrix(0.05,0,0,0.05,0,0)" xlink:href="#ay"/><use transform="matrix(0.05,0,0,0.05,12.950000000000001,0)" xlink:href="#am"/><use transform="matrix(0.05,0,0,0.05,22.950000000000003,0)" xlink:href="#ac"/><use transform="matrix(0.05,0,0,0.05,27.950000000000003,0)" xlink:href="#R"/><use transform="matrix(0.05,0,0,0.05,31.900000000000002,0)" xlink:href="#az"/><use transform="matrix(0.05,0,0,0.05,36.900000000000006,0)" xlink:href="#R"/><use transform="matrix(0.05,0,0,0.05,40.85000000000001,0)" xlink:href="#af"/><use transform="matrix(0.05,0,0,0.05,49.85000000000001,0)" xlink:href="#W"/><use transform="matrix(0.05,0,0,0.05,59.85,0)" xlink:href="#ac"/><use transform="matrix(0.05,0,0,0.05,64.85000000000001,0)" xlink:href="#R"/><use transform="matrix(0.05,0,0,0.05,68.80000000000001,0)" xlink:href="#am"/><use transform="matrix(0.05,0,0,0.05,78.80000000000001,0)" xlink:href="#ab"/></g><g id="y"><use transform="matrix(0.05,0,0,0.05,0,0)" xlink:href="#ao"/><use transform="matrix(0.05,0,0,0.05,12,0)" xlink:href="#T"/><use transform="matrix(0.05,0,0,0.05,22,0)" xlink:href="#ae"/><use transform="matrix(0.05,0,0,0.05,27.950000000000003,0)" xlink:href="#aa"/><use transform="matrix(0.05,0,0,0.05,36.95,0)" xlink:href="#R"/><use transform="matrix(0.05,0,0,0.05,40.900000000000006,0)" xlink:href="#af"/><use transform="matrix(0.05,0,0,0.05,49.900000000000006,0)" xlink:href="#T"/></g></defs></g></svg>