<svg xmlns="http://www.w3.org/2000/svg" xmlns:xlink="http://www.w3.org/1999/xlink" xmlns:lucid="lucid" width="860" height="591.73"><g transform="translate(-220.00000000000006 -160)" lucid:page-tab-id="0_0"><path d="M0 0h1870.87v1322.84H0z" fill="#fff"/><path d="M240 223.96a6 6 0 0 1 6-6h808a6 6 0 0 1 6 6v349.66a6 6 0 0 1-6 6H246a6 6 0 0 1-6-6z" stroke="#3a414a" fill="#f2f3f5"/><use xlink:href="#a" transform="matrix(1,0,0,1,245.00000000000006,222.96226415094344) translate(258.4567901234568 17.77777777777778)"/><use xlink:href="#b" transform="matrix(1,0,0,1,245.00000000000006,222.96226415094344) translate(315.1234567901235 17.77777777777778)"/><use xlink:href="#c" transform="matrix(1,0,0,1,245.00000000000006,222.96226415094344) translate(492.3456790123456 17.77777777777778)"/><path d="M578.82 283.37c.43-.18.92-.18 1.35.13.37.24.62.67.62 1.17v30.56c0 .74-.63 1.36-1.43 1.36h-12.23c-.73 0-1.4-.63-1.4-1.37v-30.56c0-.5.24-.93.67-1.17.38-.3.87-.3 1.3-.13 3.5 1.54 7.62 1.54 11.12 0zm-50.88 33.22c-.8 0-1.4-.63-1.4-1.37V288.3c0-.74.6-1.36 1.4-1.36h12.23c.8 0 1.4.62 1.4 1.35v26.94c0 .73-.6 1.35-1.4 1.35zm45.35-34.27c-6.22 0-11.2-4.98-11.2-11.13 0-6.16 4.98-11.2 11.2-11.2 6.13 0 11.17 5.04 11.17 11.2 0 6.15-5.04 11.13-11.18 11.13zm-25.76 34.26c-.8 0-1.4-.63-1.4-1.37v-20.8c0-.78.6-1.4 1.4-1.4h12.23c.8 0 1.4.62 1.4 1.42v20.8c0 .72-.6 1.34-1.4 1.34zm30.48-2.78v-27.2c-3.07.94-6.45.94-9.46 0v27.2zm-48.73 0h9.52v-24.1h-9.53zm44-51.05c-4.68 0-8.43 3.75-8.43 8.43 0 4.6 3.75 8.36 8.42 8.36 4.6 0 8.4-3.75 8.4-8.37 0-4.68-3.8-8.43-8.4-8.43zm-24.34 51.05h9.46V295.8h-9.46zm-25.94 7.7v-2.78h61.27v2.77zm51.62-47.74h-7.5V271h4.74v-5.96h2.76z" stroke="#000" stroke-opacity="0" fill="#b0084d"/><path d="M528 286.95l11.93-.06c.74.23 1.6.42 1.54 1.34l.13 6.03 4.55.06c.12-.86.6-1.3 1.35-1.35l11.44.06c.92.18 2.15-.25 2.1 1.66l4.6.12.13-15.13c-3.32-3.52-4.74-7.7-2.65-13.17 1.42-2.77 3.4-5.35 9.3-6.52 3.62.13 7 1.05 9.9 4.74 2.88 5.23 2.64 8.55 1.04 11.14-.68 1.3-1.35 2.52-2.77 3.75l.12 35.92 3.44 3.07v2.9h-61.14l.06-2.9 3.44-3.13v-27.32c.37-.8.8-1.36 1.48-1.23z" stroke="#000" stroke-opacity="0" fill-opacity="0"/><use xlink:href="#d" transform="matrix(1,0,0,1,493.01886792452797,330.5094339622643) translate(12.924999999999997 14.4)"/><use xlink:href="#e" transform="matrix(1,0,0,1,493.01886792452797,330.5094339622643) translate(38 36)"/><path d="M553.77 409.43c19.48 0 35.3 15.8 35.3 35.3 0 19.46-15.82 35.27-35.3 35.27-19.47 0-35.28-15.8-35.28-35.28s15.8-35.3 35.27-35.3zm0 67.4c17.72 0 32.1-14.4 32.1-32.1 0-17.73-14.38-32.12-32.1-32.12-17.7 0-32.1 14.4-32.1 32.12 0 17.7 14.4 32.1 32.1 32.1zm21.03-23.93c.92 0 1.63.78 1.63 1.63v9.8c0 .92-.7 1.63-1.63 1.63h-11.36c-.63 0-1.2-.35-1.4-.92l-15.96-34.15h-6.35c-.42 0-.85-.15-1.13-.5-.28-.3-.5-.7-.5-1.14l.08-9.8c0-.92.7-1.63 1.55-1.63h14.25c.57 0 1.13.35 1.42 1l15.8 34.07zm-1.55 9.88v-6.63h-3.03c-.64 0-1.2-.35-1.5-.92l-15.8-34.15h-11.57v6.63h5.8c.63 0 1.2.36 1.4.93l15.95 34.15zm-27.3-25.75l6.06 12.56c.22.48.22.97 0 1.4l-6.62 14.04c-.3.56-.85.92-1.4.92h-12.22c-.5 0-1.06-.28-1.34-.7-.3-.5-.3-1.07-.07-1.56l12.7-26.68c.28-.56.84-.9 1.4-.9.64 0 1.2.34 1.5.9zm-3.04 25.75l5.93-12.5-4.3-8.8-10.23 21.3z" stroke="#000" stroke-opacity="0" fill="#d45b07"/><use xlink:href="#f" transform="matrix(1,0,0,1,488.4905660377357,489) translate(0.4749999999999943 14.4)"/><use xlink:href="#g" transform="matrix(1,0,0,1,488.4905660377357,489) translate(62.325 14.4)"/><use xlink:href="#h" transform="matrix(1,0,0,1,488.4905660377357,489) translate(33.025 36)"/><use xlink:href="#i" transform="matrix(1,0,0,1,488.4905660377357,489) translate(31.049999999999997 57.6)"/><path d="M980 424.5v13.46c0 .77-.6 1.37-1.36 1.37h-56.52c-.77 0-1.37-.6-1.37-1.37v-5.4h2.67v4.1h53.9v-10.78H939.6v-2.73h39.04c.77 0 1.36.65 1.36 1.36zm-59.25-1.35c0-4.44 3.62-8.06 8.06-8.06 4.52 0 8.13 3.6 8.13 8.05 0 4.5-3.6 8.12-8.12 8.12-4.43 0-8.04-3.62-8.04-8.12zm2.67 0c0 3.02 2.43 5.4 5.4 5.4 3 0 5.38-2.38 5.38-5.4 0-2.96-2.37-5.4-5.4-5.4-2.95 0-5.38 2.44-5.38 5.4zm32.6 12.15h-1.08v-6.22l-2.2 4.2h-1.06l-2.25-4.26v6.28h-1.13v-7.94h1.37l2.54 4.86 2.56-4.86H956zm3-2.14l-.7 2.14h-1.25l2.96-7.94h1.25l2.96 7.94H963l-.7-2.14zm-12.2-4.85h-3.73v2.44h3.13v.94h-3.14v2.67h3.72v.95h-4.92v-7.94h4.92zm21.7-.94h1.1v7h3.75v.94h-4.86zm-40.36 17.36v-2.67h4.03v2.67zm8.06 0v-2.67h4.1v2.67zm8.1 0v-2.67h4.04v2.67zm8.07 0v-2.67h4.02v2.67zm8.05 0v-2.67h4.1v2.67zm8.12 0v-2.67h4.02v2.67zm-40.4 12.14v-2.72h4.02v2.72zm8.05 0v-2.72h4.1v2.72zm8.1 0v-2.72h4.04v2.72zm8.07 0v-2.72h4.02v2.72zm8.05 0v-2.72h4.1v2.72zm8.12 0v-2.72h4.02v2.72zm-40.4 5.33v-2.67h4.02v2.66zm8.05 0v-2.67h4.1v2.66zm8.1 0v-2.67h4.04v2.66zm8.07 0v-2.67h4.02v2.66zm8.05 0v-2.67h4.1v2.66zm8.12 0v-2.67h4.02v2.66zm-40.4 12.14v-2.67h4.02v2.67zm8.05 0v-2.67h4.1v2.67zm8.1 0v-2.67h4.04v2.67zm8.07 0v-2.67h4.02v2.67zm8.05 0v-2.67h4.1v2.67zm8.12 0v-2.67h4.02v2.67zm-45.15-20.85v.64h.7v2.72h-2c-.77 0-1.37-.65-1.37-1.36v-2zm0 17.46v.7h.7v2.68h-2c-.77 0-1.37-.6-1.37-1.36v-2.02zm-2.66-10.07c0-.78.6-1.37 1.36-1.37h2v2.66h-.7v.7h-2.66zm0-17.55c0-.7.6-1.3 1.36-1.3h2v2.67h-.7v.65h-2.66zm56.57 10.8v-.66H980v2c0 .7-.6 1.36-1.36 1.36h-2.02v-2.72zm0 17.52v-.7H980v2c0 .78-.6 1.37-1.36 1.37h-2.02v-2.67zm1.3-12.14c.78 0 1.37.6 1.37 1.36v2h-2.67v-.7h-.7v-2.67zm0-17.48c.78 0 1.37.6 1.37 1.3v2.02h-2.67v-.65h-.7v-2.67zm-13.26-6.75v-7.94h1.12v7.94zm-44.62 15.46v-2.67h2.67v2.66zm56.58 0v-2.67H980v2.66zm-56.58 17.54v-2.73h2.67v2.73zm56.58 0v-2.73H980v2.73zm-18-36.03h2.66l-1.37-3.84z" stroke="#000" stroke-opacity="0" fill="#b0084d"/><path d="M922.08 424.4h56.57v48.64h-56.57V424.4z" stroke="#000" stroke-opacity="0" fill-opacity="0"/><use xlink:href="#j" transform="matrix(1,0,0,1,890.7547169811318,483.33962264150955) translate(37.574999999999996 14.4)"/><use xlink:href="#k" transform="matrix(1,0,0,1,890.7547169811318,483.33962264150955) translate(10.574999999999996 36)"/><path d="M518.5 610.57h70.56v70.56H518.5v-70.56z" stroke="#000" stroke-opacity="0" fill="url(#l)"/><path d="M548.27 655.68v11.17h16.55v2.22h-30.87v-21.13c-1.85-.54-3.32-2.26-3.32-4.25 0-2 1.47-3.72 3.32-4.26v-15.6h2.18v15.6c1.85.54 3.32 2.26 3.32 4.25 0 .17-.05.3-.05.5l5.36 3.56c.43-.27.85-.45 1.33-.6v-23.33h2.17v23.34c.33.1.62.23.9.36l6.88-9.77c-.72-.8-1.14-1.8-1.14-2.9 0-1.98 1.43-3.7 3.28-4.24v-6.8h2.23v6.8c1 .27 1.86.9 2.47 1.72l4.22-2.54c.28-1.72 1.6-3.12 3.22-3.57v-2.4h2.23v2.4c1.85.5 3.32 2.26 3.32 4.2 0 2-1.47 3.76-3.32 4.26v10.07h-2.23V634.7c-1.28-.37-2.37-1.32-2.94-2.55l-3.7 2.27c0 .13.05.3.05.45 0 1.94-1.47 3.7-3.32 4.25v3.48h-2.22v-3.48c-.1-.04-.2-.1-.33-.13L550.83 649c.47.72.76 1.54.76 2.4 0 1.94-1.48 3.7-3.33 4.25zM577.1 664c1.18 1.1 1.28 2.9.2 4.12-.58.63-1.4.95-2.14.95-.72 0-1.43-.23-1.95-.77l-5.16-4.62c-1.47.9-3.22 1.45-5.07 1.45-5.46 0-9.9-4.43-9.9-9.9 0-5.43 4.44-9.87 9.9-9.87 5.45 0 9.86 4.44 9.86 9.86 0 1.5-.33 2.85-.9 4.12zm-21.8-8.78c0 4.26 3.4 7.7 7.67 7.7 4.22 0 7.68-3.44 7.68-7.7 0-4.2-3.46-7.64-7.68-7.64-4.27 0-7.68 3.44-7.68 7.64zm-19.17-7.28v18.9h9.96V655.7c-1.86-.55-3.33-2.3-3.33-4.26 0-.72.2-1.4.52-2l-4.75-3.15c-.57.8-1.42 1.4-2.42 1.67zm26.84 1.27c3.32 0 6.02 2.72 6.02 6.02 0 3.35-2.7 6.06-6.03 6.06-3.32 0-6.02-2.7-6.02-6.06 0-3.3 2.7-6 6.02-6zm0 9.87c2.08 0 3.8-1.72 3.8-3.85 0-2.08-1.72-3.8-3.8-3.8-2.13 0-3.84 1.72-3.84 3.8 0 2.13 1.7 3.85 3.84 3.85zm8.44-30.8c-1.13 0-2.17 1.04-2.17 2.17 0 1.17 1.04 2.2 2.18 2.2 1.2 0 2.24-1.03 2.24-2.2 0-1.13-1.04-2.18-2.23-2.18zm-12.08 4.38c-1.2 0-2.23 1.04-2.23 2.22 0 1.13 1.03 2.22 2.22 2.22 1.13 0 2.18-1.1 2.18-2.23 0-1.18-1.04-2.22-2.18-2.22zm-26.46 11.04c0 1.17 1.04 2.2 2.18 2.2 1.14 0 2.23-1.03 2.23-2.2 0-1.2-1.1-2.23-2.23-2.23-1.14 0-2.18 1.04-2.18 2.22zm14.32 5.5c-1.14 0-2.23 1.05-2.23 2.22 0 1.13 1.1 2.22 2.23 2.22 1.14 0 2.18-1.1 2.18-2.22 0-1.17-1.04-2.2-2.18-2.2zm28.5 17.42c.23-.27.23-.72-.05-1l-4.88-4.38c-.3.4-.57.77-.9 1.1l4.83 4.33c.3.27.7.22 1-.05z" stroke="#000" stroke-opacity="0" fill="#fff"/><use xlink:href="#m" transform="matrix(1,0,0,1,488.4905660377357,690.1320754716982) translate(24.375 14.4)"/><use xlink:href="#n" transform="matrix(1,0,0,1,488.4905660377357,690.1320754716982) translate(69.675 14.4)"/><use xlink:href="#o" transform="matrix(1,0,0,1,488.4905660377357,690.1320754716982) translate(15.074999999999996 36)"/><use xlink:href="#p" transform="matrix(1,0,0,1,488.4905660377357,690.1320754716982) translate(86.92500000000001 36)"/><path d="M317.36 409.43h70.56V480h-70.56v-70.57z" stroke="#000" stroke-opacity="0" fill="url(#q)"/><path d="M364.87 454.57c0 .25-.04.44-.04.63v6.6c0 4-7.2 7.2-15.97 7.2-7.63 0-15.33-2.1-15.97-6.08h-.1v-35.68c0-4.42 8.28-6.8 16.06-6.8 4.33 0 8.5.73 11.44 1.94l-.83 2.04c-2.66-1.1-6.56-1.74-10.6-1.74-8.6 0-13.83 2.67-13.83 4.56 0 1.9 5.24 4.56 13.82 4.56h.64l.08 2.2c-.24.04-.48.04-.72.04-5.32 0-10.88-1.12-13.82-3.26V435.64c0 .58.5 1.26 1.47 1.9 2.23 1.4 6.17 2.37 10.54 2.56l-.08 2.24c-4.57-.2-8.55-1.17-11.13-2.67-.36.34-.8 1.16-.8 1.6 0 1.94 5.25 4.56 13.83 4.56.8 0 1.6 0 2.4-.04l.14 2.17c-.83.1-1.7.1-2.54.1-5.32 0-10.88-1.12-13.82-3.2v4.02c0 .62.5 1.3 1.47 1.93 2.5 1.6 7.24 2.63 12.36 2.63h.36v2.23h-.36c-5.28 0-10.88-1.13-13.82-2.83-.24.25-.16.63-.08 1.07.04.24.08.44.08.63 0 1.94 5.24 4.57 13.82 4.57 8.54 0 13.83-2.63 13.83-4.57 0-.63-.7-1.26-1.24-1.7-.44.3-.92.54-1.5.78l-.85-2.04c.6-.23 1.13-.52 1.52-.77 1.2-.82 2-2 2-2.42h2.2c0 1.08-.7 2.2-1.57 3.06 1.3 1.17 1.62 2.34 1.62 3.1zm7.35-17.62L352.36 457c-.2.24-.52.34-.8.34-.2 0-.4-.05-.55-.15-.43-.3-.63-.83-.47-1.32l5.05-15.24h-5.13c-.36 0-.7-.2-.9-.53-.2-.34-.25-.72-.1-1.06l5.53-12.3c.2-.38.56-.62 1-.62h12.15c.36 0 .72.2.92.5.2.28.23.67.1 1l-2.73 7.44h5c.45 0 .88.24 1.04.68.16.38.08.87-.24 1.2zm-3.45.34h-3.94c-.4 0-.7-.2-.9-.5-.2-.3-.3-.68-.13-1.02l2.74-7.42h-9.85l-4.5 10.05h4.9c.34 0 .66.15.9.44.2.3.24.68.12 1.02l-4 12.24zm-6.16 20.9c-2.97 2.1-8.5 3.17-13.74 3.17-5.32 0-10.88-1.12-13.82-3.2v4.17c0 1.85 5.24 4.42 13.82 4.42 8.27 0 13.75-2.96 13.75-4.95zm-26.33-22.17l1.03-2c.72.4 1.63.73 2.62 1.07l-.6 2.14c-1.14-.34-2.18-.78-3.05-1.2zm0 26.75l1.03-1.94c.72.38 1.63.72 2.62 1.02l-.6 2.13c-1.14-.35-2.18-.74-3.05-1.22zm3.06-12.2c-1.15-.33-2.2-.72-3.06-1.15l1.03-2c.72.4 1.63.73 2.62 1.02z" stroke="#000" stroke-opacity="0" fill="#fff"/><use xlink:href="#r" transform="matrix(1,0,0,1,287.35849056603774,489) translate(32.525 14.4)"/><use xlink:href="#s" transform="matrix(1,0,0,1,287.35849056603774,489) translate(19.574999999999996 36)"/><path d="M518 444.72H404.3" stroke="#3a414a" fill="none"/><path d="M518.5 444.72v.5h-.52v-1h.55z" stroke="#3a414a" stroke-width=".05" fill="#3a414a"/><path d="M389.54 444.72l14.27-4.64v9.27z" stroke="#3a414a" fill="#3a414a"/><path d="M553.77 480.5v113.68" stroke="#3a414a" fill="none"/><path d="M553.77 480h.5v.5h-1v-.54z" stroke="#3a414a" stroke-width=".05" fill="#3a414a"/><path d="M553.77 608.95l-4.63-14.27h9.27z" stroke="#3a414a" fill="#3a414a"/><path d="M553.77 322.02v71.03" stroke="#3a414a" fill="none"/><path d="M554.27 322.03h-1v-.5h1z" stroke="#3a414a" stroke-width=".05" fill="#3a414a"/><path d="M553.77 407.8l-4.63-14.25h9.27z" stroke="#3a414a" fill="#3a414a"/><path d="M260 180h70.57v70.57H260V180z" stroke="#000" stroke-opacity="0" fill="url(#t)"/><path d="M293.1 235.06v-15.6h2.18v16.72c0 .6-.48 1.12-1.1 1.12H272.1c-.63 0-1.1-.52-1.1-1.12v-31.2c0-.6.47-1.1 1.1-1.1h22.05c.63 0 1.1.5 1.1 1.1v6.7h-2.17v-5.58h-19.9v28.97zm26.46-21.14c0 6.15-5.05 7.78-7.72 7.78h-13.26v-2.23h13.26c.58 0 5.53-.18 5.53-5.55 0-4.5-3.1-6.44-4.6-6.7-.6-.13-.98-.65-.93-1.2v-.05c-.05-1.76-.88-3.05-2.38-3.57-1.4-.47-3-.04-3.8 1.04-.23.3-.67.47-1.06.43-.38-.1-.72-.35-.87-.74-.53-1.46-1.26-2.4-2.33-3.48-2.52-2.53-5.05-3.95-9.08-2.53-1.8.64-3.98 2.88-4.85 4.94l-2.04-.86c1.1-2.66 3.78-5.33 6.16-6.2 5.43-1.88 8.78.5 11.35 3.06.88.9 1.6 1.77 2.2 2.84 1.4-.9 3.3-1.16 5.04-.6 2.17.73 3.53 2.53 3.82 4.94 2.43.86 5.54 3.6 5.54 8.68zm-43.02 2.2v-2.2h27.58v2.2zm0 5.58v-2.23h9.9v2.23zm0-10v-2.25h7.72v2.24zm0 15.6v-2.25h5.5v2.24zm29.76-11.2v-2.18h4.42v2.2zm-20.92 11.2v-2.25h4.37v2.24z" stroke="#000" stroke-opacity="0" fill="#fff"/><path d="M719.62 409.43h70.57V480H719.6v-70.57z" stroke="#000" stroke-opacity="0" fill="url(#u)"/><path d="M756.47 465.72c4.17 0 8.3-1.4 12.14-4.2l1.3 1.8c-4.23 3.07-8.8 4.6-13.43 4.6-10.96 0-20.44-8.54-22.34-19.98-1.37-.45-2.37-1.67-2.37-3.17s1-2.75 2.37-3.16c1.85-10.8 11.3-18.9 22.34-18.9 5.02 0 8.82 1.1 12.32 3.53l-1.28 1.8c-3.13-2.2-6.45-3.1-11.05-3.1-9.87 0-18.36 7.13-20.1 16.77.84.36 1.5 1.08 1.8 1.94h5.73v2.22h-5.74c-.28.9-.95 1.58-1.8 1.94 1.8 10.27 10.3 17.92 20.1 17.92zm-7.07-7.74c-.62 0-1.1-.45-1.1-1.08v-6.43l-4.12-10.27c-.2-.27-.28-.58-.28-.94 0-2.45 4.88-3.3 8.2-3.3 3.32 0 8.35.85 8.35 3.3 0 .45-.2.8-.48 1.17l-5.07 10.13v4.12c0 .4-.2.72-.47.95-.2.14-.48.32-.76.6-.9.76-1.95 1.62-3.04 1.75h-.14zm18.73-12.12v11.04h2.42c.47-1.27 1.66-2.22 3.13-2.22 1.8 0 3.27 1.5 3.27 3.3 0 1.86-1.47 3.35-3.27 3.35-1.47 0-2.66-.95-3.13-2.22h-3.5c-.63 0-1.1-.5-1.1-1.12v-12.12h-5.5v-2.22h5.5v-12.12c0-.6.47-1.08 1.1-1.08h3.5c.47-1.32 1.66-2.22 3.13-2.22 1.8 0 3.27 1.5 3.27 3.3 0 1.8-1.47 3.3-3.27 3.3-1.47 0-2.66-.9-3.13-2.17h-2.42v11h4.65c.43-1.27 1.66-2.18 3.08-2.18 1.85 0 3.32 1.45 3.32 3.3 0 1.8-1.47 3.3-3.32 3.3-1.42 0-2.65-.9-3.08-2.2zm-20.86-3.9l3.17 7.93c.05.12.05.26.05.4v5.47c.47-.2 1.32-.9 1.8-1.27.13-.14.28-.23.42-.36v-3.85c0-.2.05-.37.1-.5l3.88-7.8c-1.5.38-3.17.56-4.6.56-1.5 0-3.32-.18-4.83-.6zm4.83-3.83c-2.98 0-5.02.67-5.78 1.13.76.45 2.8 1.08 5.78 1.08 2.85 0 5.03-.63 5.88-1.08-.85-.5-3.03-1.13-5.88-1.13zm-17.02 5.5c-.62 0-1.1.5-1.1 1.14 0 .6.48 1.1 1.1 1.1.62 0 1.1-.5 1.1-1.1 0-.63-.48-1.13-1.1-1.13zm38.6-13.2c-.62 0-1.14.5-1.14 1.1 0 .62.52 1.12 1.14 1.12.62 0 1.1-.5 1.1-1.13 0-.6-.48-1.08-1.1-1.08zm2.18 13.2c-.62 0-1.1.5-1.1 1.14 0 .6.48 1.1 1.1 1.1.62 0 1.1-.5 1.1-1.1 0-.63-.48-1.13-1.1-1.13zm-2.18 13.27c-.62 0-1.14.5-1.14 1.08 0 .63.52 1.13 1.14 1.13.62 0 1.1-.5 1.1-1.12 0-.6-.48-1.08-1.1-1.08z" stroke="#000" stroke-opacity="0" fill="#fff"/><g><use xlink:href="#v" transform="matrix(1,0,0,1,689.6226415094337,489) translate(2.5999999999999943 14.4)"/><use xlink:href="#w" transform="matrix(1,0,0,1,689.6226415094337,489) translate(73.55 14.4)"/><use xlink:href="#x" transform="matrix(1,0,0,1,689.6226415094337,489) translate(21.099999999999994 36)"/><use xlink:href="#y" transform="matrix(1,0,0,1,689.6226415094337,489) translate(35.55 57.6)"/></g><path d="M589.56 444.72h113.68" stroke="#3a414a" fill="none"/><path d="M589.57 445.22h-.55l.04-.5v-.51h.5z" stroke="#3a414a" stroke-width=".05" fill="#3a414a"/><path d="M718 444.72l-14.26 4.63v-9.27z" stroke="#3a414a" fill="#3a414a"/><path d="M790.7 444.72h113.67" stroke="#3a414a" fill="none"/><path d="M790.7 445.22h-.5v-1h.5z" stroke="#3a414a" stroke-width=".05" fill="#3a414a"/><path d="M919.14 444.72l-14.27 4.63v-9.27z" stroke="#3a414a" fill="#3a414a"/><defs><path fill="#3a414a" d="M199 0l-22-63H83L61 0H9l90-248h61L250 0h-51zm-33-102l-36-108c-10 38-24 72-36 108h72" id="z"/><path fill="#3a414a" d="M275 0h-61l-44-196L126 0H64L0-248h53L97-49l45-199h58l43 199 44-199h52" id="A"/><path fill="#3a414a" d="M169-182c-1-43-94-46-97-3 18 66 151 10 154 114 3 95-165 93-204 36-6-8-10-19-12-30l50-8c3 46 112 56 116 5-17-69-150-10-154-114-4-87 153-88 188-35 5 8 8 18 10 28" id="B"/><g id="a"><use transform="matrix(0.06172839506172839,0,0,0.06172839506172839,0,0)" xlink:href="#z"/><use transform="matrix(0.06172839506172839,0,0,0.06172839506172839,14.753086419753085,0)" xlink:href="#A"/><use transform="matrix(0.06172839506172839,0,0,0.06172839506172839,35.67901234567901,0)" xlink:href="#B"/></g><path fill="#3a414a" d="M67-125c0 53 21 87 73 88 37 1 54-22 65-47l45 17C233-25 199 4 140 4 58 4 20-42 15-125 8-235 124-281 211-232c18 10 29 29 36 50l-46 12c-8-25-30-41-62-41-52 0-71 34-72 86" id="C"/><path fill="#3a414a" d="M25 0v-261h50V0H25" id="D"/><path fill="#3a414a" d="M110-194c64 0 96 36 96 99 0 64-35 99-97 99-61 0-95-36-95-99 0-62 34-99 96-99zm-1 164c35 0 45-28 45-65 0-40-10-65-43-65-34 0-45 26-45 65 0 36 10 65 43 65" id="E"/><path fill="#3a414a" d="M85 4C-2 5 27-109 22-190h50c7 57-23 150 33 157 60-5 35-97 40-157h50l1 190h-47c-2-12 1-28-3-38-12 25-28 42-61 42" id="F"/><path fill="#3a414a" d="M88-194c31-1 46 15 58 34l-1-101h50l1 261h-48c-2-10 0-23-3-31C134-8 116 4 84 4 32 4 16-41 15-95c0-56 19-97 73-99zm17 164c33 0 40-30 41-66 1-37-9-64-41-64s-38 30-39 65c0 43 13 65 39 65" id="G"/><path fill="#3a414a" d="M76-208v77h127v40H76V0H24v-248h183v40H76" id="H"/><path fill="#3a414a" d="M135-150c-39-12-60 13-60 57V0H25l-1-190h47c2 13-1 29 3 40 6-28 27-53 61-41v41" id="I"/><path fill="#3a414a" d="M220-157c-53 9-28 100-34 157h-49v-107c1-27-5-49-29-50C55-147 81-57 75 0H25l-1-190h47c2 12-1 28 3 38 10-53 101-56 108 0 13-22 24-43 59-42 82 1 51 116 57 194h-49v-107c-1-25-5-48-29-50" id="J"/><path fill="#3a414a" d="M133-34C117-15 103 5 69 4 32 3 11-16 11-54c-1-60 55-63 116-61 1-26-3-47-28-47-18 1-26 9-28 27l-52-2c7-38 36-58 82-57s74 22 75 68l1 82c-1 14 12 18 25 15v27c-30 8-71 5-69-32zm-48 3c29 0 43-24 42-57-32 0-66-3-65 30 0 17 8 27 23 27" id="K"/><path fill="#3a414a" d="M115-3C79 11 28 4 28-45v-112H4v-33h27l15-45h31v45h36v33H77v99c-1 23 16 31 38 25v30" id="L"/><path fill="#3a414a" d="M25-224v-37h50v37H25zM25 0v-190h50V0H25" id="M"/><path fill="#3a414a" d="M135-194c87-1 58 113 63 194h-50c-7-57 23-157-34-157-59 0-34 97-39 157H25l-1-190h47c2 12-1 28 3 38 12-26 28-41 61-42" id="N"/><g id="b"><use transform="matrix(0.06172839506172839,0,0,0.06172839506172839,0,0)" xlink:href="#C"/><use transform="matrix(0.06172839506172839,0,0,0.06172839506172839,15.987654320987653,0)" xlink:href="#D"/><use transform="matrix(0.06172839506172839,0,0,0.06172839506172839,22.160493827160494,0)" xlink:href="#E"/><use transform="matrix(0.06172839506172839,0,0,0.06172839506172839,35.67901234567901,0)" xlink:href="#F"/><use transform="matrix(0.06172839506172839,0,0,0.06172839506172839,49.19753086419753,0)" xlink:href="#G"/><use transform="matrix(0.06172839506172839,0,0,0.06172839506172839,62.71604938271605,0)" xlink:href="#H"/><use transform="matrix(0.06172839506172839,0,0,0.06172839506172839,76.23456790123457,0)" xlink:href="#E"/><use transform="matrix(0.06172839506172839,0,0,0.06172839506172839,89.75308641975309,0)" xlink:href="#I"/><use transform="matrix(0.06172839506172839,0,0,0.06172839506172839,98.39506172839506,0)" xlink:href="#J"/><use transform="matrix(0.06172839506172839,0,0,0.06172839506172839,118.14814814814815,0)" xlink:href="#K"/><use transform="matrix(0.06172839506172839,0,0,0.06172839506172839,130.49382716049382,0)" xlink:href="#L"/><use transform="matrix(0.06172839506172839,0,0,0.06172839506172839,137.8395061728395,0)" xlink:href="#M"/><use transform="matrix(0.06172839506172839,0,0,0.06172839506172839,144.01234567901233,0)" xlink:href="#E"/><use transform="matrix(0.06172839506172839,0,0,0.06172839506172839,157.53086419753083,0)" xlink:href="#N"/></g><path fill="#3a414a" d="M190-63c-7 42-38 67-86 67-59 0-84-38-90-98-12-110 154-137 174-36l-49 2c-2-19-15-32-35-32-30 0-35 28-38 64-6 74 65 87 74 30" id="O"/><path fill="#3a414a" d="M147 0L96-86 75-71V0H25v-261h50v150l67-79h53l-66 74L201 0h-54" id="P"/><g id="c"><use transform="matrix(0.06172839506172839,0,0,0.06172839506172839,0,0)" xlink:href="#B"/><use transform="matrix(0.06172839506172839,0,0,0.06172839506172839,14.814814814814813,0)" xlink:href="#L"/><use transform="matrix(0.06172839506172839,0,0,0.06172839506172839,22.160493827160494,0)" xlink:href="#K"/><use transform="matrix(0.06172839506172839,0,0,0.06172839506172839,34.50617283950617,0)" xlink:href="#O"/><use transform="matrix(0.06172839506172839,0,0,0.06172839506172839,46.85185185185185,0)" xlink:href="#P"/></g><path d="M127-220V0H93v-220H8v-28h204v28h-85" id="Q"/><path d="M24-231v-30h32v30H24zM24 0v-190h32V0H24" id="R"/><path d="M210-169c-67 3-38 105-44 169h-31v-121c0-29-5-50-35-48C34-165 62-65 56 0H25l-1-190h30c1 10-1 24 2 32 10-44 99-50 107 0 11-21 27-35 58-36 85-2 47 119 55 194h-31v-121c0-29-5-49-35-48" id="S"/><path d="M100-194c63 0 86 42 84 106H49c0 40 14 67 53 68 26 1 43-12 49-29l28 8c-11 28-37 45-77 45C44 4 14-33 15-96c1-61 26-98 85-98zm52 81c6-60-76-77-97-28-3 7-6 17-6 28h103" id="T"/><path d="M16-82v-28h88v28H16" id="U"/><path d="M160-131c35 5 61 23 61 61C221 17 115-2 30 0v-248c76 3 177-17 177 60 0 33-19 50-47 57zm-97-11c50-1 110 9 110-42 0-47-63-36-110-37v79zm0 115c55-2 124 14 124-45 0-56-70-42-124-44v89" id="V"/><path d="M141-36C126-15 110 5 73 4 37 3 15-17 15-53c-1-64 63-63 125-63 3-35-9-54-41-54-24 1-41 7-42 31l-33-3c5-37 33-52 76-52 45 0 72 20 72 64v82c-1 20 7 32 28 27v20c-31 9-61-2-59-35zM48-53c0 20 12 33 32 33 41-3 63-29 60-74-43 2-92-5-92 41" id="W"/><path d="M135-143c-3-34-86-38-87 0 15 53 115 12 119 90S17 21 10-45l28-5c4 36 97 45 98 0-10-56-113-15-118-90-4-57 82-63 122-42 12 7 21 19 24 35" id="X"/><path d="M85-194c31 0 48 13 60 33l-1-100h32l1 261h-30c-2-10 0-23-3-31C134-8 116 4 85 4 32 4 16-35 15-94c0-66 23-100 70-100zm9 24c-40 0-46 34-46 75 0 40 6 74 45 74 42 0 51-32 51-76 0-42-9-74-50-73" id="Y"/><g id="d"><use transform="matrix(0.05,0,0,0.05,0,0)" xlink:href="#Q"/><use transform="matrix(0.05,0,0,0.05,10.3,0)" xlink:href="#R"/><use transform="matrix(0.05,0,0,0.05,14.25,0)" xlink:href="#S"/><use transform="matrix(0.05,0,0,0.05,29.200000000000003,0)" xlink:href="#T"/><use transform="matrix(0.05,0,0,0.05,39.2,0)" xlink:href="#U"/><use transform="matrix(0.05,0,0,0.05,45.150000000000006,0)" xlink:href="#V"/><use transform="matrix(0.05,0,0,0.05,57.150000000000006,0)" xlink:href="#W"/><use transform="matrix(0.05,0,0,0.05,67.15,0)" xlink:href="#X"/><use transform="matrix(0.05,0,0,0.05,76.15,0)" xlink:href="#T"/><use transform="matrix(0.05,0,0,0.05,86.15,0)" xlink:href="#Y"/></g><path d="M30 0v-248h187v28H63v79h144v27H63v87h162V0H30" id="Z"/><path d="M108 0H70L1-190h34L89-25l56-165h34" id="aa"/><path d="M117-194c89-4 53 116 60 194h-32v-121c0-31-8-49-39-48C34-167 62-67 57 0H25l-1-190h30c1 10-1 24 2 32 11-22 29-35 61-36" id="ab"/><path d="M59-47c-2 24 18 29 38 22v24C64 9 27 4 27-40v-127H5v-23h24l9-43h21v43h35v23H59v120" id="ac"/><g id="e"><use transform="matrix(0.05,0,0,0.05,0,0)" xlink:href="#Z"/><use transform="matrix(0.05,0,0,0.05,12,0)" xlink:href="#aa"/><use transform="matrix(0.05,0,0,0.05,21,0)" xlink:href="#T"/><use transform="matrix(0.05,0,0,0.05,31,0)" xlink:href="#ab"/><use transform="matrix(0.05,0,0,0.05,41,0)" xlink:href="#ac"/></g><path d="M212-179c-10-28-35-45-73-45-59 0-87 40-87 99 0 60 29 101 89 101 43 0 62-24 78-52l27 14C228-24 195 4 139 4 59 4 22-46 18-125c-6-104 99-153 187-111 19 9 31 26 39 46" id="ad"/><path d="M114-163C36-179 61-72 57 0H25l-1-190h30c1 12-1 29 2 39 6-27 23-49 58-41v29" id="ae"/><g id="f"><use transform="matrix(0.05,0,0,0.05,0,0)" xlink:href="#ad"/><use transform="matrix(0.05,0,0,0.05,12.950000000000001,0)" xlink:href="#ae"/><use transform="matrix(0.05,0,0,0.05,18.900000000000002,0)" xlink:href="#T"/><use transform="matrix(0.05,0,0,0.05,28.900000000000002,0)" xlink:href="#Y"/><use transform="matrix(0.05,0,0,0.05,38.900000000000006,0)" xlink:href="#R"/><use transform="matrix(0.05,0,0,0.05,42.85000000000001,0)" xlink:href="#ac"/><use transform="matrix(0.05,0,0,0.05,47.85000000000001,0)" xlink:href="#X"/></g><path d="M96-169c-40 0-48 33-48 73s9 75 48 75c24 0 41-14 43-38l32 2c-6 37-31 61-74 61-59 0-76-41-82-99-10-93 101-131 147-64 4 7 5 14 7 22l-32 3c-4-21-16-35-41-35" id="af"/><path d="M143 0L79-87 56-68V0H24v-261h32v163l83-92h37l-77 82L181 0h-38" id="ag"/><path d="M177-190C167-65 218 103 67 71c-23-6-38-20-44-43l32-5c15 47 100 32 89-28v-30C133-14 115 1 83 1 29 1 15-40 15-95c0-56 16-97 71-98 29-1 48 16 59 35 1-10 0-23 2-32h30zM94-22c36 0 50-32 50-73 0-42-14-75-50-75-39 0-46 34-46 75s6 73 46 73" id="ah"/><g id="g"><use transform="matrix(0.05,0,0,0.05,0,0)" xlink:href="#Q"/><use transform="matrix(0.05,0,0,0.05,10.3,0)" xlink:href="#ae"/><use transform="matrix(0.05,0,0,0.05,16.25,0)" xlink:href="#W"/><use transform="matrix(0.05,0,0,0.05,26.25,0)" xlink:href="#af"/><use transform="matrix(0.05,0,0,0.05,35.25,0)" xlink:href="#ag"/><use transform="matrix(0.05,0,0,0.05,44.25,0)" xlink:href="#R"/><use transform="matrix(0.05,0,0,0.05,48.2,0)" xlink:href="#ab"/><use transform="matrix(0.05,0,0,0.05,58.2,0)" xlink:href="#ah"/></g><path d="M30 0v-248h33v221h125V0H30" id="ai"/><path d="M115-194c53 0 69 39 70 98 0 66-23 100-70 100C84 3 66-7 56-30L54 0H23l1-261h32v101c10-23 28-34 59-34zm-8 174c40 0 45-34 45-75 0-40-5-75-45-74-42 0-51 32-51 76 0 43 10 73 51 73" id="aj"/><g id="h"><use transform="matrix(0.05,0,0,0.05,0,0)" xlink:href="#ai"/><use transform="matrix(0.05,0,0,0.05,10,0)" xlink:href="#W"/><use transform="matrix(0.05,0,0,0.05,20,0)" xlink:href="#S"/><use transform="matrix(0.05,0,0,0.05,34.95,0)" xlink:href="#aj"/><use transform="matrix(0.05,0,0,0.05,44.95,0)" xlink:href="#Y"/><use transform="matrix(0.05,0,0,0.05,54.95,0)" xlink:href="#W"/></g><path d="M63-220v92h138v28H63V0H30v-248h175v28H63" id="ak"/><path d="M84 4C-5 8 30-112 23-190h32v120c0 31 7 50 39 49 72-2 45-101 50-169h31l1 190h-30c-1-10 1-25-2-33-11 22-28 36-60 37" id="al"/><path d="M100-194c62-1 85 37 85 99 1 63-27 99-86 99S16-35 15-95c0-66 28-99 85-99zM99-20c44 1 53-31 53-75 0-43-8-75-51-75s-53 32-53 75 10 74 51 75" id="am"/><g id="i"><use transform="matrix(0.05,0,0,0.05,0,0)" xlink:href="#ak"/><use transform="matrix(0.05,0,0,0.05,10.950000000000001,0)" xlink:href="#al"/><use transform="matrix(0.05,0,0,0.05,20.950000000000003,0)" xlink:href="#ab"/><use transform="matrix(0.05,0,0,0.05,30.950000000000003,0)" xlink:href="#af"/><use transform="matrix(0.05,0,0,0.05,39.95,0)" xlink:href="#ac"/><use transform="matrix(0.05,0,0,0.05,44.95,0)" xlink:href="#R"/><use transform="matrix(0.05,0,0,0.05,48.900000000000006,0)" xlink:href="#am"/><use transform="matrix(0.05,0,0,0.05,58.900000000000006,0)" xlink:href="#ab"/></g><path d="M24 0v-261h32V0H24" id="an"/><g id="j"><use transform="matrix(0.05,0,0,0.05,0,0)" xlink:href="#Z"/><use transform="matrix(0.05,0,0,0.05,12,0)" xlink:href="#S"/><use transform="matrix(0.05,0,0,0.05,26.950000000000003,0)" xlink:href="#W"/><use transform="matrix(0.05,0,0,0.05,36.95,0)" xlink:href="#R"/><use transform="matrix(0.05,0,0,0.05,40.900000000000006,0)" xlink:href="#an"/></g><path d="M185-189c-5-48-123-54-124 2 14 75 158 14 163 119 3 78-121 87-175 55-17-10-28-26-33-46l33-7c5 56 141 63 141-1 0-78-155-14-162-118-5-82 145-84 179-34 5 7 8 16 11 25" id="ao"/><path d="M115-194c55 1 70 41 70 98S169 2 115 4C84 4 66-9 55-30l1 105H24l-1-265h31l2 30c10-21 28-34 59-34zm-8 174c40 0 45-34 45-75s-6-73-45-74c-42 0-51 32-51 76 0 43 10 73 51 73" id="ap"/><g id="k"><use transform="matrix(0.05,0,0,0.05,0,0)" xlink:href="#ao"/><use transform="matrix(0.05,0,0,0.05,12,0)" xlink:href="#al"/><use transform="matrix(0.05,0,0,0.05,22,0)" xlink:href="#aj"/><use transform="matrix(0.05,0,0,0.05,32,0)" xlink:href="#X"/><use transform="matrix(0.05,0,0,0.05,41,0)" xlink:href="#af"/><use transform="matrix(0.05,0,0,0.05,50,0)" xlink:href="#ae"/><use transform="matrix(0.05,0,0,0.05,55.95,0)" xlink:href="#R"/><use transform="matrix(0.05,0,0,0.05,59.900000000000006,0)" xlink:href="#ap"/><use transform="matrix(0.05,0,0,0.05,69.9,0)" xlink:href="#ac"/><use transform="matrix(0.05,0,0,0.05,74.9,0)" xlink:href="#R"/><use transform="matrix(0.05,0,0,0.05,78.85000000000001,0)" xlink:href="#am"/><use transform="matrix(0.05,0,0,0.05,88.85000000000001,0)" xlink:href="#ab"/></g><linearGradient gradientUnits="userSpaceOnUse" id="l" x1="518.49" y1="681.13" x2="589.06" y2="610.57"><stop offset="0%" stop-color="#1b660f"/><stop offset="100%" stop-color="#6cae3e"/></linearGradient><path d="M205 0l-28-72H64L36 0H1l101-248h38L239 0h-34zm-38-99l-47-123c-12 45-31 82-46 123h93" id="aq"/><path d="M266 0h-40l-56-210L115 0H75L2-248h35L96-30l15-64 43-154h32l59 218 59-218h35" id="ar"/><g id="m"><use transform="matrix(0.05,0,0,0.05,0,0)" xlink:href="#aq"/><use transform="matrix(0.05,0,0,0.05,11.35,0)" xlink:href="#ar"/><use transform="matrix(0.05,0,0,0.05,28.299999999999997,0)" xlink:href="#ao"/></g><g id="n"><use transform="matrix(0.05,0,0,0.05,0,0)" xlink:href="#ad"/><use transform="matrix(0.05,0,0,0.05,12.950000000000001,0)" xlink:href="#am"/><use transform="matrix(0.05,0,0,0.05,22.950000000000003,0)" xlink:href="#X"/><use transform="matrix(0.05,0,0,0.05,31.950000000000003,0)" xlink:href="#ac"/></g><path d="M141 0L90-78 38 0H4l68-98-65-92h35l48 74 47-74h35l-64 92 68 98h-35" id="as"/><g id="o"><use transform="matrix(0.05,0,0,0.05,0,0)" xlink:href="#Z"/><use transform="matrix(0.05,0,0,0.05,12,0)" xlink:href="#as"/><use transform="matrix(0.05,0,0,0.05,21,0)" xlink:href="#ap"/><use transform="matrix(0.05,0,0,0.05,31,0)" xlink:href="#an"/><use transform="matrix(0.05,0,0,0.05,34.95,0)" xlink:href="#am"/><use transform="matrix(0.05,0,0,0.05,44.95,0)" xlink:href="#ae"/><use transform="matrix(0.05,0,0,0.05,50.900000000000006,0)" xlink:href="#T"/><use transform="matrix(0.05,0,0,0.05,60.900000000000006,0)" xlink:href="#ae"/></g><path d="M30-248c87 1 191-15 191 75 0 78-77 80-158 76V0H30v-248zm33 125c57 0 124 11 124-50 0-59-68-47-124-48v98" id="at"/><path d="M33 0v-248h34V0H33" id="au"/><g id="p"><use transform="matrix(0.05,0,0,0.05,0,0)" xlink:href="#aq"/><use transform="matrix(0.05,0,0,0.05,12,0)" xlink:href="#at"/><use transform="matrix(0.05,0,0,0.05,24,0)" xlink:href="#au"/></g><linearGradient gradientUnits="userSpaceOnUse" id="q" x1="317.36" y1="480" x2="387.92" y2="409.43"><stop offset="0%" stop-color="#2e27ad"/><stop offset="100%" stop-color="#527fff"/></linearGradient><path d="M9 0v-24l116-142H16v-24h144v24L44-24h123V0H9" id="av"/><g id="r"><use transform="matrix(0.05,0,0,0.05,0,0)" xlink:href="#aq"/><use transform="matrix(0.05,0,0,0.05,12,0)" xlink:href="#S"/><use transform="matrix(0.05,0,0,0.05,26.950000000000003,0)" xlink:href="#W"/><use transform="matrix(0.05,0,0,0.05,36.95,0)" xlink:href="#av"/><use transform="matrix(0.05,0,0,0.05,45.95,0)" xlink:href="#am"/><use transform="matrix(0.05,0,0,0.05,55.95,0)" xlink:href="#ab"/></g><path d="M30-248c118-7 216 8 213 122C240-48 200 0 122 0H30v-248zM63-27c89 8 146-16 146-99s-60-101-146-95v194" id="aw"/><path d="M179-190L93 31C79 59 56 82 12 73V49c39 6 53-20 64-50L1-190h34L92-34l54-156h33" id="ax"/><g id="s"><use transform="matrix(0.05,0,0,0.05,0,0)" xlink:href="#aw"/><use transform="matrix(0.05,0,0,0.05,12.950000000000001,0)" xlink:href="#ax"/><use transform="matrix(0.05,0,0,0.05,21.950000000000003,0)" xlink:href="#ab"/><use transform="matrix(0.05,0,0,0.05,31.950000000000003,0)" xlink:href="#W"/><use transform="matrix(0.05,0,0,0.05,41.95,0)" xlink:href="#S"/><use transform="matrix(0.05,0,0,0.05,56.900000000000006,0)" xlink:href="#am"/><use transform="matrix(0.05,0,0,0.05,66.9,0)" xlink:href="#aw"/><use transform="matrix(0.05,0,0,0.05,79.85000000000001,0)" xlink:href="#V"/></g><linearGradient gradientUnits="userSpaceOnUse" id="t" x1="260" y1="250.57" x2="330.57" y2="180"><stop offset="0%" stop-color="#b0084d"/><stop offset="100%" stop-color="#ff4f8b"/></linearGradient><linearGradient gradientUnits="userSpaceOnUse" id="u" x1="719.62" y1="480" x2="790.19" y2="409.43"><stop offset="0%" stop-color="#b0084d"/><stop offset="100%" stop-color="#ff4f8b"/></linearGradient><g id="v"><use transform="matrix(0.05,0,0,0.05,0,0)" xlink:href="#aq"/><use transform="matrix(0.05,0,0,0.05,12,0)" xlink:href="#S"/><use transform="matrix(0.05,0,0,0.05,26.950000000000003,0)" xlink:href="#W"/><use transform="matrix(0.05,0,0,0.05,36.95,0)" xlink:href="#av"/><use transform="matrix(0.05,0,0,0.05,45.95,0)" xlink:href="#am"/><use transform="matrix(0.05,0,0,0.05,55.95,0)" xlink:href="#ab"/></g><g id="w"><use transform="matrix(0.05,0,0,0.05,0,0)" xlink:href="#ao"/><use transform="matrix(0.05,0,0,0.05,12,0)" xlink:href="#R"/><use transform="matrix(0.05,0,0,0.05,15.949999999999998,0)" xlink:href="#S"/><use transform="matrix(0.05,0,0,0.05,30.899999999999995,0)" xlink:href="#ap"/><use transform="matrix(0.05,0,0,0.05,40.9,0)" xlink:href="#an"/><use transform="matrix(0.05,0,0,0.05,44.85,0)" xlink:href="#T"/></g><path d="M190 0L58-211 59 0H30v-248h39L202-35l-2-213h31V0h-41" id="ay"/><path d="M101-234c-31-9-42 10-38 44h38v23H63V0H32v-167H5v-23h27c-7-52 17-82 69-68v24" id="az"/><g id="x"><use transform="matrix(0.05,0,0,0.05,0,0)" xlink:href="#ay"/><use transform="matrix(0.05,0,0,0.05,12.950000000000001,0)" xlink:href="#am"/><use transform="matrix(0.05,0,0,0.05,22.950000000000003,0)" xlink:href="#ac"/><use transform="matrix(0.05,0,0,0.05,27.950000000000003,0)" xlink:href="#R"/><use transform="matrix(0.05,0,0,0.05,31.900000000000002,0)" xlink:href="#az"/><use transform="matrix(0.05,0,0,0.05,36.900000000000006,0)" xlink:href="#R"/><use transform="matrix(0.05,0,0,0.05,40.85000000000001,0)" xlink:href="#af"/><use transform="matrix(0.05,0,0,0.05,49.85000000000001,0)" xlink:href="#W"/><use transform="matrix(0.05,0,0,0.05,59.85,0)" xlink:href="#ac"/><use transform="matrix(0.05,0,0,0.05,64.85000000000001,0)" xlink:href="#R"/><use transform="matrix(0.05,0,0,0.05,68.80000000000001,0)" xlink:href="#am"/><use transform="matrix(0.05,0,0,0.05,78.80000000000001,0)" xlink:href="#ab"/></g><g id="y"><use transform="matrix(0.05,0,0,0.05,0,0)" xlink:href="#ao"/><use transform="matrix(0.05,0,0,0.05,12,0)" xlink:href="#T"/><use transform="matrix(0.05,0,0,0.05,22,0)" xlink:href="#ae"/><use transform="matrix(0.05,0,0,0.05,27.950000000000003,0)" xlink:href="#aa"/><use transform="matrix(0.05,0,0,0.05,36.95,0)" xlink:href="#R"/><use transform="matrix(0.05,0,0,0.05,40.900000000000006,0)" xlink:href="#af"/><use transform="matrix(0.05,0,0,0.05,49.900000000000006,0)" xlink:href="#T"/></g></defs></g></svg>